<mxfile host="www.draw.io" modified="2019-10-18T09:21:26.011Z" agent="Mozilla/5.0 (X11; Linux x86_64) AppleWebKit/537.36 (KHTML, like Gecko) Chrome/76.0.3809.87 Safari/537.36" etag="NEsbOwJYauj5FET9mKPB" version="12.1.3" type="github" pages="1">
  <diagram id="wU1A7ZqZoi6GiLLCmWU0" name="Page-1">
    <mxGraphModel dx="1408" dy="738" grid="1" gridSize="10" guides="1" tooltips="1" connect="1" arrows="1" fold="1" page="1" pageScale="1" pageWidth="1169" pageHeight="827" math="0" shadow="0">
      <root>
        <mxCell id="0"/>
        <mxCell id="1" parent="0"/>
        <mxCell id="mqcAec2xRXexYzDcIC-P-79" value="&lt;div class=&quot;gtx-body&quot; style=&quot;display: inline ; font-size: 18px ; margin: 5px auto ; padding: 5px 0px ; color: rgb(37 , 37 , 37) ; font-family: &amp;quot;roboto&amp;quot; , &amp;quot;arial&amp;quot; , sans-serif ; white-space: normal&quot;&gt;browser&lt;/div&gt;" style="rounded=1;whiteSpace=wrap;html=1;shadow=0;glass=0;comic=1;labelBackgroundColor=none;fontSize=14;opacity=80;align=center;fillColor=#d5e8d4;strokeColor=#82b366;horizontal=1;spacingBottom=70;fontStyle=1;gradientColor=none;" vertex="1" parent="1">
          <mxGeometry x="1841" y="921.5" width="130" height="410" as="geometry"/>
        </mxCell>
        <mxCell id="jtTCTWdZy7aRetB8OSgc-1" value="" style="group" parent="1" vertex="1" connectable="0">
          <mxGeometry x="320" y="510" width="360" height="137" as="geometry"/>
        </mxCell>
        <mxCell id="0OA5MnC2VpykpQYva78K-1" value="redis" style="rounded=1;whiteSpace=wrap;html=1;verticalAlign=top;fontStyle=1;fillColor=#e3c800;strokeColor=#B09500;fontColor=#000000;opacity=80;" parent="jtTCTWdZy7aRetB8OSgc-1" vertex="1">
          <mxGeometry width="360" height="137" as="geometry"/>
        </mxCell>
        <mxCell id="0OA5MnC2VpykpQYva78K-2" value="OauthToken_U1&lt;br&gt;OauthToken_U2&lt;br&gt;" style="rounded=1;whiteSpace=wrap;html=1;fillColor=#ffcc99;strokeColor=#36393d;" parent="jtTCTWdZy7aRetB8OSgc-1" vertex="1">
          <mxGeometry x="10.588235294117647" y="35" width="127.05882352941177" height="95" as="geometry"/>
        </mxCell>
        <mxCell id="0OA5MnC2VpykpQYva78K-3" value="U1: {uname:111, pwd: !@#$}&lt;br&gt;U2: {uname:222, pwd: !@#$}" style="rounded=1;whiteSpace=wrap;html=1;fillColor=#ffcc99;strokeColor=#36393d;" parent="jtTCTWdZy7aRetB8OSgc-1" vertex="1">
          <mxGeometry x="158" y="35" width="182" height="95" as="geometry"/>
        </mxCell>
        <mxCell id="jtTCTWdZy7aRetB8OSgc-2" value="&lt;b&gt;uaa-fronted-proxy&lt;/b&gt;" style="rounded=1;whiteSpace=wrap;html=1;opacity=80;verticalAlign=top;fillColor=#cdeb8b;strokeColor=#36393d;" parent="1" vertex="1">
          <mxGeometry x="290" y="210" width="330" height="200" as="geometry"/>
        </mxCell>
        <mxCell id="jtTCTWdZy7aRetB8OSgc-3" value="rancher" style="rounded=1;whiteSpace=wrap;html=1;fontColor=#000000;opacity=80;" parent="1" vertex="1">
          <mxGeometry x="850" y="270" width="120" height="140" as="geometry"/>
        </mxCell>
        <mxCell id="jtTCTWdZy7aRetB8OSgc-5" value="&lt;b&gt;raging uaa认证系统&lt;/b&gt;" style="aspect=fixed;perimeter=ellipsePerimeter;html=1;align=center;shadow=0;dashed=0;spacingTop=3;image;image=img/lib/active_directory/web_server.svg;" parent="1" vertex="1">
          <mxGeometry x="560" width="70" height="88" as="geometry"/>
        </mxCell>
        <mxCell id="jtTCTWdZy7aRetB8OSgc-6" value="" style="shape=umlActor;verticalLabelPosition=bottom;labelBackgroundColor=#ffffff;verticalAlign=top;html=1;outlineConnect=0;" parent="1" vertex="1">
          <mxGeometry x="40" y="300" width="30" height="60" as="geometry"/>
        </mxCell>
        <mxCell id="jtTCTWdZy7aRetB8OSgc-7" value="&lt;b&gt;authorization middleware&lt;/b&gt;" style="rounded=1;whiteSpace=wrap;html=1;opacity=40;fillColor=#008a00;strokeColor=#005700;fontColor=#000000;verticalAlign=middle;" parent="1" vertex="1">
          <mxGeometry x="310" y="270" width="170" height="130" as="geometry"/>
        </mxCell>
        <mxCell id="jtTCTWdZy7aRetB8OSgc-10" value="2.1 &lt;b&gt;/oauth/authorize&lt;/b&gt;&lt;br&gt;cliendid+scope+response_type+state_redirec_url" style="curved=1;endArrow=classic;html=1;fontColor=#000000;entryX=0;entryY=0.5;entryDx=0;entryDy=0;exitX=0.25;exitY=0;exitDx=0;exitDy=0;fillColor=#e51400;strokeColor=#B20000;" parent="1" source="jtTCTWdZy7aRetB8OSgc-7" target="jtTCTWdZy7aRetB8OSgc-5" edge="1">
          <mxGeometry width="50" height="50" relative="1" as="geometry">
            <mxPoint x="380" y="190" as="sourcePoint"/>
            <mxPoint x="430" y="140" as="targetPoint"/>
            <Array as="points">
              <mxPoint x="300" y="150"/>
              <mxPoint x="350" y="70"/>
              <mxPoint x="480" y="40"/>
            </Array>
          </mxGeometry>
        </mxCell>
        <mxCell id="jtTCTWdZy7aRetB8OSgc-11" value="2.2 code+state" style="curved=1;endArrow=classic;html=1;fontColor=#000000;entryX=0.4;entryY=-0.033;entryDx=0;entryDy=0;entryPerimeter=0;exitX=0;exitY=0.75;exitDx=0;exitDy=0;fillColor=#e51400;strokeColor=#B20000;" parent="1" source="jtTCTWdZy7aRetB8OSgc-5" target="jtTCTWdZy7aRetB8OSgc-7" edge="1">
          <mxGeometry width="50" height="50" relative="1" as="geometry">
            <mxPoint x="455" y="178" as="sourcePoint"/>
            <mxPoint x="505" y="128" as="targetPoint"/>
            <Array as="points">
              <mxPoint x="430" y="90"/>
              <mxPoint x="330" y="140"/>
            </Array>
          </mxGeometry>
        </mxCell>
        <mxCell id="jtTCTWdZy7aRetB8OSgc-12" value="2.3 /oauth/token&lt;br&gt;clientid+secret+code+grant_type+redirect_url" style="curved=1;endArrow=classic;html=1;fontColor=#000000;exitX=0.5;exitY=0;exitDx=0;exitDy=0;entryX=0.25;entryY=1;entryDx=0;entryDy=0;fillColor=#e51400;strokeColor=#B20000;" parent="1" source="jtTCTWdZy7aRetB8OSgc-7" target="jtTCTWdZy7aRetB8OSgc-5" edge="1">
          <mxGeometry width="50" height="50" relative="1" as="geometry">
            <mxPoint x="490" y="210" as="sourcePoint"/>
            <mxPoint x="540" y="160" as="targetPoint"/>
            <Array as="points">
              <mxPoint x="490" y="160"/>
              <mxPoint x="520" y="140"/>
            </Array>
          </mxGeometry>
        </mxCell>
        <mxCell id="jtTCTWdZy7aRetB8OSgc-13" value="2.4 access_token+expires_in+token_type" style="curved=1;endArrow=classic;html=1;fontColor=#000000;entryX=0.75;entryY=0;entryDx=0;entryDy=0;fillColor=#e51400;strokeColor=#B20000;" parent="1" source="jtTCTWdZy7aRetB8OSgc-5" target="jtTCTWdZy7aRetB8OSgc-7" edge="1">
          <mxGeometry x="-0.0309" width="50" height="50" relative="1" as="geometry">
            <mxPoint x="650" y="250" as="sourcePoint"/>
            <mxPoint x="700" y="200" as="targetPoint"/>
            <Array as="points">
              <mxPoint x="700" y="150"/>
              <mxPoint x="620" y="210"/>
            </Array>
            <mxPoint as="offset"/>
          </mxGeometry>
        </mxCell>
        <mxCell id="jtTCTWdZy7aRetB8OSgc-14" value="1.1 check token expired" style="curved=1;endArrow=classic;html=1;fontColor=#000000;entryX=0;entryY=0.75;entryDx=0;entryDy=0;exitX=0.017;exitY=0.917;exitDx=0;exitDy=0;exitPerimeter=0;" parent="1" source="jtTCTWdZy7aRetB8OSgc-7" target="0OA5MnC2VpykpQYva78K-2" edge="1">
          <mxGeometry width="50" height="50" relative="1" as="geometry">
            <mxPoint x="310" y="477.5" as="sourcePoint"/>
            <mxPoint x="360" y="427.5" as="targetPoint"/>
            <Array as="points">
              <mxPoint x="210" y="450"/>
              <mxPoint x="220" y="530"/>
            </Array>
          </mxGeometry>
        </mxCell>
        <mxCell id="jtTCTWdZy7aRetB8OSgc-15" value="1.2&lt;b style=&quot;color: rgb(0 , 204 , 0)&quot;&gt; true&lt;/b&gt; or &lt;b&gt;&lt;font color=&quot;#ff0000&quot;&gt;false&lt;/font&gt;&lt;/b&gt;" style="curved=1;endArrow=classic;html=1;fontColor=#000000;entryX=0.25;entryY=1;entryDx=0;entryDy=0;exitX=0;exitY=0.25;exitDx=0;exitDy=0;" parent="1" source="0OA5MnC2VpykpQYva78K-2" target="jtTCTWdZy7aRetB8OSgc-7" edge="1">
          <mxGeometry width="50" height="50" relative="1" as="geometry">
            <mxPoint x="410" y="430" as="sourcePoint"/>
            <mxPoint x="460" y="380" as="targetPoint"/>
            <Array as="points">
              <mxPoint x="280" y="500"/>
              <mxPoint x="280" y="450"/>
            </Array>
          </mxGeometry>
        </mxCell>
        <mxCell id="jtTCTWdZy7aRetB8OSgc-18" value="2.5 get user info or create one by uid" style="curved=1;endArrow=classic;html=1;fontColor=#000000;entryX=0.805;entryY=0.011;entryDx=0;entryDy=0;entryPerimeter=0;fillColor=#e51400;strokeColor=#B20000;startArrow=classic;startFill=1;" parent="1" source="jtTCTWdZy7aRetB8OSgc-27" target="0OA5MnC2VpykpQYva78K-3" edge="1">
          <mxGeometry x="0.274" width="50" height="50" relative="1" as="geometry">
            <mxPoint x="490" y="380" as="sourcePoint"/>
            <mxPoint x="540" y="330" as="targetPoint"/>
            <Array as="points">
              <mxPoint x="622" y="440"/>
              <mxPoint x="630" y="490"/>
            </Array>
            <mxPoint as="offset"/>
          </mxGeometry>
        </mxCell>
        <mxCell id="jtTCTWdZy7aRetB8OSgc-19" value="2.6 create account&lt;br&gt;or login&lt;br&gt;and get data" style="curved=1;endArrow=classic;html=1;fontColor=#000000;entryX=0.25;entryY=0;entryDx=0;entryDy=0;fillColor=#e51400;strokeColor=#B20000;exitX=0.983;exitY=0.069;exitDx=0;exitDy=0;exitPerimeter=0;" parent="1" source="jtTCTWdZy7aRetB8OSgc-27" target="jtTCTWdZy7aRetB8OSgc-3" edge="1">
          <mxGeometry width="50" height="50" relative="1" as="geometry">
            <mxPoint x="610" y="280" as="sourcePoint"/>
            <mxPoint x="609" y="265" as="targetPoint"/>
            <Array as="points">
              <mxPoint x="680" y="260"/>
              <mxPoint x="730" y="250"/>
            </Array>
          </mxGeometry>
        </mxCell>
        <mxCell id="jtTCTWdZy7aRetB8OSgc-21" value="2.8 save uname + pwd" style="curved=1;endArrow=classic;html=1;fontColor=#000000;entryX=0.25;entryY=0;entryDx=0;entryDy=0;exitX=0.25;exitY=1;exitDx=0;exitDy=0;fillColor=#e51400;strokeColor=#B20000;" parent="1" source="jtTCTWdZy7aRetB8OSgc-27" target="0OA5MnC2VpykpQYva78K-3" edge="1">
          <mxGeometry x="-0.1648" y="23" width="50" height="50" relative="1" as="geometry">
            <mxPoint x="390" y="395" as="sourcePoint"/>
            <mxPoint x="440" y="345" as="targetPoint"/>
            <Array as="points">
              <mxPoint x="510" y="490"/>
            </Array>
            <mxPoint x="-7" y="-5" as="offset"/>
          </mxGeometry>
        </mxCell>
        <mxCell id="jtTCTWdZy7aRetB8OSgc-22" value="2.4 save oauthtoken" style="curved=1;endArrow=classic;html=1;fontColor=#000000;entryX=0.25;entryY=0;entryDx=0;entryDy=0;exitX=0.465;exitY=0.983;exitDx=0;exitDy=0;exitPerimeter=0;fillColor=#e51400;strokeColor=#B20000;" parent="1" source="jtTCTWdZy7aRetB8OSgc-7" target="0OA5MnC2VpykpQYva78K-2" edge="1">
          <mxGeometry x="-0.2361" width="50" height="50" relative="1" as="geometry">
            <mxPoint x="405" y="340" as="sourcePoint"/>
            <mxPoint x="584" y="455" as="targetPoint"/>
            <Array as="points">
              <mxPoint x="370" y="420"/>
              <mxPoint x="370" y="490"/>
            </Array>
            <mxPoint as="offset"/>
          </mxGeometry>
        </mxCell>
        <mxCell id="jtTCTWdZy7aRetB8OSgc-23" value="api request" style="curved=1;endArrow=classic;html=1;fontColor=#000000;exitX=0.75;exitY=0.1;exitDx=0;exitDy=0;exitPerimeter=0;" parent="1" source="jtTCTWdZy7aRetB8OSgc-6" target="jtTCTWdZy7aRetB8OSgc-7" edge="1">
          <mxGeometry width="50" height="50" relative="1" as="geometry">
            <mxPoint x="150" y="295" as="sourcePoint"/>
            <mxPoint x="200" y="245" as="targetPoint"/>
            <Array as="points">
              <mxPoint x="130" y="250"/>
            </Array>
          </mxGeometry>
        </mxCell>
        <mxCell id="jtTCTWdZy7aRetB8OSgc-24" value="2.9 oauthToken&lt;br&gt;rancherToken&lt;br&gt;data" style="curved=1;endArrow=classic;html=1;fontColor=#000000;entryX=0.5;entryY=0.5;entryDx=0;entryDy=0;entryPerimeter=0;fillColor=#e51400;strokeColor=#B20000;exitX=0.008;exitY=0.369;exitDx=0;exitDy=0;exitPerimeter=0;" parent="1" source="jtTCTWdZy7aRetB8OSgc-27" target="jtTCTWdZy7aRetB8OSgc-6" edge="1">
          <mxGeometry x="0.6321" y="41" width="50" height="50" relative="1" as="geometry">
            <mxPoint x="150" y="370" as="sourcePoint"/>
            <mxPoint x="200" y="320" as="targetPoint"/>
            <Array as="points">
              <mxPoint x="150" y="320"/>
            </Array>
            <mxPoint x="32" y="-30" as="offset"/>
          </mxGeometry>
        </mxCell>
        <mxCell id="jtTCTWdZy7aRetB8OSgc-25" value="3. 1 access with rancherToken&lt;br&gt;or pwd" style="curved=1;endArrow=classic;html=1;fontColor=#000000;exitX=1.008;exitY=0.377;exitDx=0;exitDy=0;exitPerimeter=0;entryX=-0.017;entryY=0.367;entryDx=0;entryDy=0;entryPerimeter=0;fillColor=#60a917;strokeColor=#2D7600;" parent="1" source="jtTCTWdZy7aRetB8OSgc-27" target="jtTCTWdZy7aRetB8OSgc-3" edge="1">
          <mxGeometry x="0.0176" y="6" width="50" height="50" relative="1" as="geometry">
            <mxPoint x="549" y="385" as="sourcePoint"/>
            <mxPoint x="599" y="335" as="targetPoint"/>
            <Array as="points">
              <mxPoint x="710" y="335"/>
            </Array>
            <mxPoint as="offset"/>
          </mxGeometry>
        </mxCell>
        <mxCell id="jtTCTWdZy7aRetB8OSgc-26" value="3.2 data or unrecognized" style="curved=1;endArrow=classic;html=1;fontColor=#000000;entryX=1;entryY=0.5;entryDx=0;entryDy=0;exitX=0;exitY=0.5;exitDx=0;exitDy=0;fillColor=#008a00;strokeColor=#005700;" parent="1" source="jtTCTWdZy7aRetB8OSgc-3" target="jtTCTWdZy7aRetB8OSgc-27" edge="1">
          <mxGeometry x="-0.0212" y="-10" width="50" height="50" relative="1" as="geometry">
            <mxPoint x="564" y="400" as="sourcePoint"/>
            <mxPoint x="614" y="350" as="targetPoint"/>
            <Array as="points">
              <mxPoint x="730" y="360"/>
            </Array>
            <mxPoint as="offset"/>
          </mxGeometry>
        </mxCell>
        <mxCell id="jtTCTWdZy7aRetB8OSgc-27" value="proxy&lt;br&gt;&lt;br&gt;parse oauthToken uid" style="rounded=1;whiteSpace=wrap;html=1;fontColor=#000000;opacity=40;" parent="1" vertex="1">
          <mxGeometry x="489" y="270" width="120" height="130" as="geometry"/>
        </mxCell>
        <mxCell id="jtTCTWdZy7aRetB8OSgc-28" value="2.7 token or data" style="curved=1;endArrow=classic;html=1;fontColor=#000000;entryX=1;entryY=0.25;entryDx=0;entryDy=0;exitX=0.025;exitY=0.078;exitDx=0;exitDy=0;fillColor=#e51400;strokeColor=#B20000;exitPerimeter=0;" parent="1" source="jtTCTWdZy7aRetB8OSgc-3" target="jtTCTWdZy7aRetB8OSgc-27" edge="1">
          <mxGeometry width="50" height="50" relative="1" as="geometry">
            <mxPoint x="853" y="327.02" as="sourcePoint"/>
            <mxPoint x="480" y="302.5" as="targetPoint"/>
            <Array as="points">
              <mxPoint x="640" y="290"/>
            </Array>
          </mxGeometry>
        </mxCell>
        <mxCell id="jtTCTWdZy7aRetB8OSgc-30" value="3.3 get uname + pwd" style="curved=1;endArrow=classic;html=1;fontColor=#000000;exitX=1;exitY=0.75;exitDx=0;exitDy=0;entryX=1;entryY=0.25;entryDx=0;entryDy=0;fillColor=#008a00;strokeColor=#005700;" parent="1" source="jtTCTWdZy7aRetB8OSgc-27" target="0OA5MnC2VpykpQYva78K-3" edge="1">
          <mxGeometry x="-0.1725" y="-3" width="50" height="50" relative="1" as="geometry">
            <mxPoint x="704.5" y="438" as="sourcePoint"/>
            <mxPoint x="754.5" y="388" as="targetPoint"/>
            <Array as="points">
              <mxPoint x="680" y="410"/>
              <mxPoint x="700" y="440"/>
            </Array>
            <mxPoint as="offset"/>
          </mxGeometry>
        </mxCell>
        <mxCell id="jtTCTWdZy7aRetB8OSgc-31" value="3.4 data + rancherToken" style="curved=1;endArrow=classic;html=1;fontColor=#000000;exitX=0;exitY=0.75;exitDx=0;exitDy=0;entryX=0.667;entryY=0.833;entryDx=0;entryDy=0;entryPerimeter=0;" parent="1" source="jtTCTWdZy7aRetB8OSgc-27" target="jtTCTWdZy7aRetB8OSgc-6" edge="1">
          <mxGeometry x="0.5123" y="-7" width="50" height="50" relative="1" as="geometry">
            <mxPoint x="720" y="425" as="sourcePoint"/>
            <mxPoint x="80" y="360" as="targetPoint"/>
            <Array as="points">
              <mxPoint x="320" y="368"/>
              <mxPoint x="200" y="380"/>
            </Array>
            <mxPoint as="offset"/>
          </mxGeometry>
        </mxCell>
        <mxCell id="ZNw0FCCPqXBxDtfS_jLe-9" value="" style="edgeStyle=orthogonalEdgeStyle;rounded=0;orthogonalLoop=1;jettySize=auto;html=1;entryX=0.5;entryY=0;entryDx=0;entryDy=0;" parent="1" source="ZNw0FCCPqXBxDtfS_jLe-5" target="ZNw0FCCPqXBxDtfS_jLe-131" edge="1">
          <mxGeometry relative="1" as="geometry">
            <mxPoint x="225" y="1201.5" as="targetPoint"/>
          </mxGeometry>
        </mxCell>
        <mxCell id="ZNw0FCCPqXBxDtfS_jLe-136" value="" style="edgeStyle=orthogonalEdgeStyle;rounded=0;orthogonalLoop=1;jettySize=auto;html=1;startArrow=none;startFill=0;endArrow=none;endFill=0;" parent="1" edge="1">
          <mxGeometry relative="1" as="geometry">
            <mxPoint x="270" y="1096.5" as="sourcePoint"/>
            <mxPoint x="478" y="1096.5" as="targetPoint"/>
          </mxGeometry>
        </mxCell>
        <mxCell id="ZNw0FCCPqXBxDtfS_jLe-5" value="从redis查询uaa_token是否有效" style="strokeWidth=2;html=1;shape=mxgraph.flowchart.decision;whiteSpace=wrap;" parent="1" vertex="1">
          <mxGeometry x="175" y="1046.5" width="100" height="100" as="geometry"/>
        </mxCell>
        <mxCell id="ZNw0FCCPqXBxDtfS_jLe-14" value="" style="edgeStyle=orthogonalEdgeStyle;rounded=0;orthogonalLoop=1;jettySize=auto;html=1;" parent="1" source="ZNw0FCCPqXBxDtfS_jLe-12" target="MsyxyNkL6-CA4OaowcqU-8" edge="1">
          <mxGeometry relative="1" as="geometry">
            <mxPoint x="225" y="1461.5" as="targetPoint"/>
          </mxGeometry>
        </mxCell>
        <mxCell id="MsyxyNkL6-CA4OaowcqU-12" value="" style="edgeStyle=orthogonalEdgeStyle;rounded=0;orthogonalLoop=1;jettySize=auto;html=1;" parent="1" source="ZNw0FCCPqXBxDtfS_jLe-12" target="MsyxyNkL6-CA4OaowcqU-11" edge="1">
          <mxGeometry relative="1" as="geometry"/>
        </mxCell>
        <mxCell id="ZNw0FCCPqXBxDtfS_jLe-12" value="token有效" style="strokeWidth=2;html=1;shape=mxgraph.flowchart.decision;whiteSpace=wrap;" parent="1" vertex="1">
          <mxGeometry x="175" y="1306.5" width="100" height="100" as="geometry"/>
        </mxCell>
        <mxCell id="ZNw0FCCPqXBxDtfS_jLe-67" style="edgeStyle=orthogonalEdgeStyle;rounded=0;orthogonalLoop=1;jettySize=auto;html=1;entryX=0.5;entryY=0;entryDx=0;entryDy=0;entryPerimeter=0;" parent="1" source="MsyxyNkL6-CA4OaowcqU-8" target="ZNw0FCCPqXBxDtfS_jLe-66" edge="1">
          <mxGeometry relative="1" as="geometry">
            <mxPoint x="225" y="1521.5" as="sourcePoint"/>
          </mxGeometry>
        </mxCell>
        <mxCell id="MsyxyNkL6-CA4OaowcqU-6" value="" style="edgeStyle=orthogonalEdgeStyle;rounded=0;orthogonalLoop=1;jettySize=auto;html=1;" parent="1" source="ZNw0FCCPqXBxDtfS_jLe-63" target="MsyxyNkL6-CA4OaowcqU-3" edge="1">
          <mxGeometry relative="1" as="geometry"/>
        </mxCell>
        <mxCell id="ZNw0FCCPqXBxDtfS_jLe-63" value="用户请求" style="strokeWidth=2;html=1;shape=mxgraph.flowchart.terminator;whiteSpace=wrap;" parent="1" vertex="1">
          <mxGeometry x="175" y="718.5" width="100" height="60" as="geometry"/>
        </mxCell>
        <mxCell id="ZNw0FCCPqXBxDtfS_jLe-66" value="结束" style="strokeWidth=2;html=1;shape=mxgraph.flowchart.terminator;whiteSpace=wrap;" parent="1" vertex="1">
          <mxGeometry x="175" y="1591.5" width="100" height="60" as="geometry"/>
        </mxCell>
        <mxCell id="ZNw0FCCPqXBxDtfS_jLe-74" value="" style="edgeStyle=orthogonalEdgeStyle;rounded=0;orthogonalLoop=1;jettySize=auto;html=1;" parent="1" source="ZNw0FCCPqXBxDtfS_jLe-72" target="ZNw0FCCPqXBxDtfS_jLe-5" edge="1">
          <mxGeometry relative="1" as="geometry"/>
        </mxCell>
        <mxCell id="ZNw0FCCPqXBxDtfS_jLe-78" style="edgeStyle=orthogonalEdgeStyle;rounded=0;orthogonalLoop=1;jettySize=auto;html=1;entryX=0.5;entryY=0;entryDx=0;entryDy=0;" parent="1" source="ZNw0FCCPqXBxDtfS_jLe-72" target="ZNw0FCCPqXBxDtfS_jLe-128" edge="1">
          <mxGeometry relative="1" as="geometry">
            <mxPoint x="443" y="971.5" as="targetPoint"/>
          </mxGeometry>
        </mxCell>
        <mxCell id="ZNw0FCCPqXBxDtfS_jLe-72" value="判断&lt;br&gt;uaa_token存在" style="strokeWidth=2;html=1;shape=mxgraph.flowchart.decision;whiteSpace=wrap;" parent="1" vertex="1">
          <mxGeometry x="175" y="891.5" width="100" height="100" as="geometry"/>
        </mxCell>
        <mxCell id="ZNw0FCCPqXBxDtfS_jLe-75" value="Y" style="text;html=1;resizable=0;points=[];autosize=1;align=left;verticalAlign=top;spacingTop=-4;" parent="1" vertex="1">
          <mxGeometry x="243" y="991.5" width="20" height="20" as="geometry"/>
        </mxCell>
        <mxCell id="ZNw0FCCPqXBxDtfS_jLe-85" value="" style="edgeStyle=orthogonalEdgeStyle;rounded=0;orthogonalLoop=1;jettySize=auto;html=1;endArrow=classic;endFill=1;startArrow=none;startFill=0;entryX=0.5;entryY=0;entryDx=0;entryDy=0;" parent="1" source="ZNw0FCCPqXBxDtfS_jLe-83" target="ZNw0FCCPqXBxDtfS_jLe-94" edge="1">
          <mxGeometry relative="1" as="geometry">
            <mxPoint x="695" y="857.5" as="targetPoint"/>
          </mxGeometry>
        </mxCell>
        <mxCell id="ZNw0FCCPqXBxDtfS_jLe-83" value="uaa回调进入/uaalogin" style="strokeWidth=2;html=1;shape=mxgraph.flowchart.terminator;whiteSpace=wrap;" parent="1" vertex="1">
          <mxGeometry x="645" y="717.5" width="100" height="60" as="geometry"/>
        </mxCell>
        <mxCell id="ZNw0FCCPqXBxDtfS_jLe-89" value="" style="edgeStyle=orthogonalEdgeStyle;rounded=0;orthogonalLoop=1;jettySize=auto;html=1;startArrow=none;startFill=0;endArrow=classic;endFill=1;" parent="1" source="ZNw0FCCPqXBxDtfS_jLe-86" target="ZNw0FCCPqXBxDtfS_jLe-90" edge="1">
          <mxGeometry relative="1" as="geometry">
            <mxPoint x="1005" y="958.5" as="targetPoint"/>
          </mxGeometry>
        </mxCell>
        <mxCell id="ZNw0FCCPqXBxDtfS_jLe-86" value="从redis获取对应用户名和密码" style="strokeWidth=2;html=1;shape=mxgraph.flowchart.terminator;whiteSpace=wrap;" parent="1" vertex="1">
          <mxGeometry x="955" y="818.5" width="100" height="60" as="geometry"/>
        </mxCell>
        <mxCell id="ZNw0FCCPqXBxDtfS_jLe-92" value="" style="edgeStyle=orthogonalEdgeStyle;rounded=0;orthogonalLoop=1;jettySize=auto;html=1;startArrow=none;startFill=0;endArrow=classic;endFill=1;entryX=0;entryY=0.5;entryDx=0;entryDy=0;" parent="1" source="ZNw0FCCPqXBxDtfS_jLe-90" target="ZNw0FCCPqXBxDtfS_jLe-95" edge="1">
          <mxGeometry relative="1" as="geometry">
            <mxPoint x="1135" y="983.5" as="targetPoint"/>
          </mxGeometry>
        </mxCell>
        <mxCell id="ZNw0FCCPqXBxDtfS_jLe-101" value="" style="edgeStyle=orthogonalEdgeStyle;rounded=0;orthogonalLoop=1;jettySize=auto;html=1;startArrow=none;startFill=0;endArrow=classic;endFill=1;movable=0;resizable=0;rotatable=0;deletable=0;editable=0;connectable=0;entryX=0.5;entryY=0;entryDx=0;entryDy=0;" parent="1" source="ZNw0FCCPqXBxDtfS_jLe-90" target="ZNw0FCCPqXBxDtfS_jLe-119" edge="1">
          <mxGeometry relative="1" as="geometry">
            <mxPoint x="1680" y="1450" as="targetPoint"/>
          </mxGeometry>
        </mxCell>
        <mxCell id="ZNw0FCCPqXBxDtfS_jLe-90" value="用户名密码是否存在" style="rhombus;whiteSpace=wrap;html=1;" parent="1" vertex="1">
          <mxGeometry x="965" y="918.5" width="80" height="80" as="geometry"/>
        </mxCell>
        <mxCell id="ZNw0FCCPqXBxDtfS_jLe-108" value="" style="edgeStyle=orthogonalEdgeStyle;rounded=0;orthogonalLoop=1;jettySize=auto;html=1;startArrow=none;startFill=0;endArrow=classic;endFill=1;entryX=0.5;entryY=0;entryDx=0;entryDy=0;" parent="1" source="ZNw0FCCPqXBxDtfS_jLe-100" target="ZNw0FCCPqXBxDtfS_jLe-124" edge="1">
          <mxGeometry relative="1" as="geometry">
            <mxPoint x="1005" y="1416.5" as="targetPoint"/>
          </mxGeometry>
        </mxCell>
        <mxCell id="ZNw0FCCPqXBxDtfS_jLe-116" value="" style="edgeStyle=orthogonalEdgeStyle;rounded=0;orthogonalLoop=1;jettySize=auto;html=1;startArrow=none;startFill=0;endArrow=classic;endFill=1;entryX=0.5;entryY=0;entryDx=0;entryDy=0;" parent="1" source="ZNw0FCCPqXBxDtfS_jLe-100" target="ZNw0FCCPqXBxDtfS_jLe-126" edge="1">
          <mxGeometry relative="1" as="geometry">
            <mxPoint x="1135" y="1526.5" as="targetPoint"/>
          </mxGeometry>
        </mxCell>
        <mxCell id="ZNw0FCCPqXBxDtfS_jLe-100" value="是否登录成功，并获取token" style="rhombus;whiteSpace=wrap;html=1;" parent="1" vertex="1">
          <mxGeometry x="965" y="1273.5" width="80" height="80" as="geometry"/>
        </mxCell>
        <mxCell id="MsyxyNkL6-CA4OaowcqU-16" value="" style="edgeStyle=orthogonalEdgeStyle;rounded=0;orthogonalLoop=1;jettySize=auto;html=1;endArrow=classic;endFill=1;" parent="1" source="ZNw0FCCPqXBxDtfS_jLe-94" target="MsyxyNkL6-CA4OaowcqU-15" edge="1">
          <mxGeometry relative="1" as="geometry"/>
        </mxCell>
        <mxCell id="ZNw0FCCPqXBxDtfS_jLe-94" value="uaa_token存入redis" style="shape=parallelogram;html=1;strokeWidth=2;perimeter=parallelogramPerimeter;whiteSpace=wrap;rounded=1;arcSize=12;size=0.23;" parent="1" vertex="1">
          <mxGeometry x="630" y="832.5" width="130" height="60" as="geometry"/>
        </mxCell>
        <mxCell id="sy4YX7AeFQuPvRJ4Ls3s-3" value="" style="edgeStyle=none;orthogonalLoop=1;jettySize=auto;html=1;endArrow=classic;endFill=1;" parent="1" source="ZNw0FCCPqXBxDtfS_jLe-95" target="sy4YX7AeFQuPvRJ4Ls3s-2" edge="1">
          <mxGeometry relative="1" as="geometry"/>
        </mxCell>
        <mxCell id="ZNw0FCCPqXBxDtfS_jLe-95" value="调用rancher接口&lt;br&gt;创建该用户" style="shape=parallelogram;html=1;strokeWidth=2;perimeter=parallelogramPerimeter;whiteSpace=wrap;rounded=1;arcSize=12;size=0.23;" parent="1" vertex="1">
          <mxGeometry x="1165" y="928.5" width="130" height="60" as="geometry"/>
        </mxCell>
        <mxCell id="ZNw0FCCPqXBxDtfS_jLe-96" value="N" style="text;html=1;resizable=0;points=[];autosize=1;align=left;verticalAlign=top;spacingTop=-4;" parent="1" vertex="1">
          <mxGeometry x="1053" y="939.5" width="20" height="20" as="geometry"/>
        </mxCell>
        <mxCell id="sy4YX7AeFQuPvRJ4Ls3s-25" style="edgeStyle=orthogonalEdgeStyle;rounded=0;orthogonalLoop=1;jettySize=auto;html=1;endArrow=none;endFill=0;endSize=6;strokeWidth=1;" parent="1" edge="1">
          <mxGeometry relative="1" as="geometry">
            <mxPoint x="1005" y="1075.5" as="targetPoint"/>
            <mxPoint x="1064.95" y="1075.5" as="sourcePoint"/>
          </mxGeometry>
        </mxCell>
        <mxCell id="ZNw0FCCPqXBxDtfS_jLe-97" value="存入redis" style="shape=parallelogram;html=1;strokeWidth=2;perimeter=parallelogramPerimeter;whiteSpace=wrap;rounded=1;arcSize=12;size=0.23;" parent="1" vertex="1">
          <mxGeometry x="1045" y="1045.5" width="130" height="60" as="geometry"/>
        </mxCell>
        <mxCell id="ZNw0FCCPqXBxDtfS_jLe-102" value="Y" style="text;html=1;resizable=0;points=[];autosize=1;align=left;verticalAlign=top;spacingTop=-4;" parent="1" vertex="1">
          <mxGeometry x="1015" y="1003.5" width="20" height="20" as="geometry"/>
        </mxCell>
        <mxCell id="ZNw0FCCPqXBxDtfS_jLe-109" value="Y" style="text;html=1;resizable=0;points=[];autosize=1;align=left;verticalAlign=top;spacingTop=-4;" parent="1" vertex="1">
          <mxGeometry x="1015" y="1366" width="20" height="20" as="geometry"/>
        </mxCell>
        <mxCell id="ZNw0FCCPqXBxDtfS_jLe-112" value="" style="edgeStyle=orthogonalEdgeStyle;rounded=0;orthogonalLoop=1;jettySize=auto;html=1;startArrow=none;startFill=0;endArrow=classic;endFill=1;exitX=0.5;exitY=1;exitDx=0;exitDy=0;entryX=0.5;entryY=0;entryDx=0;entryDy=0;" parent="1" source="ZNw0FCCPqXBxDtfS_jLe-124" target="ZNw0FCCPqXBxDtfS_jLe-125" edge="1">
          <mxGeometry relative="1" as="geometry">
            <mxPoint x="1005" y="1476" as="sourcePoint"/>
            <mxPoint x="935" y="1553.5" as="targetPoint"/>
          </mxGeometry>
        </mxCell>
        <mxCell id="ZNw0FCCPqXBxDtfS_jLe-114" value="" style="edgeStyle=orthogonalEdgeStyle;rounded=0;orthogonalLoop=1;jettySize=auto;html=1;startArrow=none;startFill=0;endArrow=classic;endFill=1;exitX=0.5;exitY=1;exitDx=0;exitDy=0;" parent="1" source="ZNw0FCCPqXBxDtfS_jLe-125" target="ZNw0FCCPqXBxDtfS_jLe-113" edge="1">
          <mxGeometry relative="1" as="geometry">
            <mxPoint x="1005" y="1586" as="sourcePoint"/>
          </mxGeometry>
        </mxCell>
        <mxCell id="ZNw0FCCPqXBxDtfS_jLe-113" value="结束" style="strokeWidth=2;html=1;shape=mxgraph.flowchart.terminator;whiteSpace=wrap;" parent="1" vertex="1">
          <mxGeometry x="955" y="1646" width="100" height="60" as="geometry"/>
        </mxCell>
        <mxCell id="ZNw0FCCPqXBxDtfS_jLe-118" style="edgeStyle=orthogonalEdgeStyle;rounded=0;orthogonalLoop=1;jettySize=auto;html=1;startArrow=none;startFill=0;endArrow=none;endFill=0;exitX=0.5;exitY=1;exitDx=0;exitDy=0;" parent="1" source="ZNw0FCCPqXBxDtfS_jLe-126" edge="1">
          <mxGeometry relative="1" as="geometry">
            <mxPoint x="1005" y="1616" as="targetPoint"/>
            <mxPoint x="1135" y="1586" as="sourcePoint"/>
            <Array as="points">
              <mxPoint x="1220" y="1616.5"/>
            </Array>
          </mxGeometry>
        </mxCell>
        <mxCell id="ZNw0FCCPqXBxDtfS_jLe-122" value="" style="edgeStyle=orthogonalEdgeStyle;rounded=0;orthogonalLoop=1;jettySize=auto;html=1;startArrow=none;startFill=0;endArrow=classic;endFill=1;" parent="1" source="ZNw0FCCPqXBxDtfS_jLe-119" target="ZNw0FCCPqXBxDtfS_jLe-100" edge="1">
          <mxGeometry relative="1" as="geometry"/>
        </mxCell>
        <mxCell id="ZNw0FCCPqXBxDtfS_jLe-119" value="使用用户名密码去rancher登录" style="shape=parallelogram;html=1;strokeWidth=2;perimeter=parallelogramPerimeter;whiteSpace=wrap;rounded=1;arcSize=12;size=0.23;" parent="1" vertex="1">
          <mxGeometry x="940" y="1183.5" width="130" height="60" as="geometry"/>
        </mxCell>
        <mxCell id="ZNw0FCCPqXBxDtfS_jLe-123" value="N" style="text;html=1;resizable=0;points=[];autosize=1;align=left;verticalAlign=top;spacingTop=-4;" parent="1" vertex="1">
          <mxGeometry x="1055" y="1293.5" width="20" height="20" as="geometry"/>
        </mxCell>
        <mxCell id="ZNw0FCCPqXBxDtfS_jLe-124" value="set cookie to request" style="shape=parallelogram;html=1;strokeWidth=2;perimeter=parallelogramPerimeter;whiteSpace=wrap;rounded=1;arcSize=12;size=0.23;" parent="1" vertex="1">
          <mxGeometry x="940" y="1413.5" width="130" height="60" as="geometry"/>
        </mxCell>
        <mxCell id="ZNw0FCCPqXBxDtfS_jLe-125" value="代理到rancher" style="shape=parallelogram;html=1;strokeWidth=2;perimeter=parallelogramPerimeter;whiteSpace=wrap;rounded=1;arcSize=12;size=0.23;" parent="1" vertex="1">
          <mxGeometry x="940" y="1526" width="130" height="60" as="geometry"/>
        </mxCell>
        <mxCell id="ZNw0FCCPqXBxDtfS_jLe-126" value="联系管理员" style="shape=parallelogram;html=1;strokeWidth=2;perimeter=parallelogramPerimeter;whiteSpace=wrap;rounded=1;arcSize=12;size=0.23;" parent="1" vertex="1">
          <mxGeometry x="1165" y="1413.5" width="130" height="60" as="geometry"/>
        </mxCell>
        <mxCell id="ZNw0FCCPqXBxDtfS_jLe-127" value="N" style="text;html=1;resizable=0;points=[];autosize=1;align=left;verticalAlign=top;spacingTop=-4;" parent="1" vertex="1">
          <mxGeometry x="283" y="921.5" width="20" height="20" as="geometry"/>
        </mxCell>
        <mxCell id="ZNw0FCCPqXBxDtfS_jLe-129" style="edgeStyle=orthogonalEdgeStyle;rounded=0;orthogonalLoop=1;jettySize=auto;html=1;startArrow=none;startFill=0;endArrow=none;endFill=0;exitX=0.5;exitY=1;exitDx=0;exitDy=0;" parent="1" source="ZNw0FCCPqXBxDtfS_jLe-128" edge="1">
          <mxGeometry relative="1" as="geometry">
            <mxPoint x="225" y="1541.5" as="targetPoint"/>
            <mxPoint x="483" y="1241.5" as="sourcePoint"/>
            <Array as="points">
              <mxPoint x="478" y="1541.5"/>
            </Array>
          </mxGeometry>
        </mxCell>
        <mxCell id="ZNw0FCCPqXBxDtfS_jLe-128" value="redirect到uaa" style="shape=parallelogram;html=1;strokeWidth=2;perimeter=parallelogramPerimeter;whiteSpace=wrap;rounded=1;arcSize=12;size=0.23;" parent="1" vertex="1">
          <mxGeometry x="413" y="1196.5" width="130" height="60" as="geometry"/>
        </mxCell>
        <mxCell id="ZNw0FCCPqXBxDtfS_jLe-130" value="Y" style="text;html=1;resizable=0;points=[];autosize=1;align=left;verticalAlign=top;spacingTop=-4;" parent="1" vertex="1">
          <mxGeometry x="233" y="1156.5" width="20" height="20" as="geometry"/>
        </mxCell>
        <mxCell id="ZNw0FCCPqXBxDtfS_jLe-132" value="" style="edgeStyle=orthogonalEdgeStyle;rounded=0;orthogonalLoop=1;jettySize=auto;html=1;startArrow=none;startFill=0;endArrow=classic;endFill=1;" parent="1" source="ZNw0FCCPqXBxDtfS_jLe-131" target="ZNw0FCCPqXBxDtfS_jLe-12" edge="1">
          <mxGeometry relative="1" as="geometry"/>
        </mxCell>
        <mxCell id="ZNw0FCCPqXBxDtfS_jLe-131" value="使用users?me=true&lt;br&gt;验证rancher_token&lt;br&gt;是否有效" style="shape=parallelogram;html=1;strokeWidth=2;perimeter=parallelogramPerimeter;whiteSpace=wrap;rounded=1;arcSize=12;size=0.23;" parent="1" vertex="1">
          <mxGeometry x="160" y="1196.5" width="130" height="60" as="geometry"/>
        </mxCell>
        <mxCell id="ZNw0FCCPqXBxDtfS_jLe-133" value="Y" style="text;html=1;resizable=0;points=[];autosize=1;align=left;verticalAlign=top;spacingTop=-4;" parent="1" vertex="1">
          <mxGeometry x="233" y="1411.5" width="20" height="20" as="geometry"/>
        </mxCell>
        <mxCell id="ZNw0FCCPqXBxDtfS_jLe-137" value="N" style="text;html=1;resizable=0;points=[];autosize=1;align=left;verticalAlign=top;spacingTop=-4;" parent="1" vertex="1">
          <mxGeometry x="275" y="1076.5" width="20" height="20" as="geometry"/>
        </mxCell>
        <mxCell id="sy4YX7AeFQuPvRJ4Ls3s-20" style="edgeStyle=orthogonalEdgeStyle;rounded=0;orthogonalLoop=1;jettySize=auto;html=1;endArrow=none;endFill=0;endSize=6;strokeWidth=1;" parent="1" source="sy4YX7AeFQuPvRJ4Ls3s-2" edge="1">
          <mxGeometry relative="1" as="geometry">
            <mxPoint x="1230" y="1313.5" as="targetPoint"/>
          </mxGeometry>
        </mxCell>
        <mxCell id="sy4YX7AeFQuPvRJ4Ls3s-22" style="edgeStyle=orthogonalEdgeStyle;rounded=0;orthogonalLoop=1;jettySize=auto;html=1;entryX=1;entryY=0.5;entryDx=0;entryDy=0;endArrow=classic;endFill=1;endSize=6;strokeWidth=1;" parent="1" source="sy4YX7AeFQuPvRJ4Ls3s-2" target="ZNw0FCCPqXBxDtfS_jLe-97" edge="1">
          <mxGeometry relative="1" as="geometry"/>
        </mxCell>
        <mxCell id="sy4YX7AeFQuPvRJ4Ls3s-2" value="创建成功" style="rhombus;whiteSpace=wrap;html=1;" parent="1" vertex="1">
          <mxGeometry x="1190" y="1035.5" width="80" height="80" as="geometry"/>
        </mxCell>
        <mxCell id="sy4YX7AeFQuPvRJ4Ls3s-17" value="N" style="text;html=1;resizable=0;points=[];autosize=1;align=left;verticalAlign=top;spacingTop=-4;" parent="1" vertex="1">
          <mxGeometry x="1240" y="1123.5" width="20" height="20" as="geometry"/>
        </mxCell>
        <mxCell id="sy4YX7AeFQuPvRJ4Ls3s-24" value="Y" style="text;html=1;resizable=0;points=[];autosize=1;align=left;verticalAlign=top;spacingTop=-4;" parent="1" vertex="1">
          <mxGeometry x="1170" y="1083.5" width="20" height="20" as="geometry"/>
        </mxCell>
        <mxCell id="MsyxyNkL6-CA4OaowcqU-2" value="" style="edgeStyle=orthogonalEdgeStyle;rounded=0;orthogonalLoop=1;jettySize=auto;html=1;" parent="1" source="MsyxyNkL6-CA4OaowcqU-1" target="ZNw0FCCPqXBxDtfS_jLe-86" edge="1">
          <mxGeometry relative="1" as="geometry"/>
        </mxCell>
        <mxCell id="MsyxyNkL6-CA4OaowcqU-1" value="开始" style="strokeWidth=2;html=1;shape=mxgraph.flowchart.terminator;whiteSpace=wrap;" parent="1" vertex="1">
          <mxGeometry x="955" y="718.5" width="100" height="60" as="geometry"/>
        </mxCell>
        <mxCell id="MsyxyNkL6-CA4OaowcqU-7" value="" style="edgeStyle=orthogonalEdgeStyle;rounded=0;orthogonalLoop=1;jettySize=auto;html=1;" parent="1" source="MsyxyNkL6-CA4OaowcqU-3" target="ZNw0FCCPqXBxDtfS_jLe-72" edge="1">
          <mxGeometry relative="1" as="geometry"/>
        </mxCell>
        <mxCell id="MsyxyNkL6-CA4OaowcqU-3" value="获取req的token" style="shape=parallelogram;html=1;strokeWidth=2;perimeter=parallelogramPerimeter;whiteSpace=wrap;rounded=1;arcSize=12;size=0.23;" parent="1" vertex="1">
          <mxGeometry x="160" y="805" width="130" height="60" as="geometry"/>
        </mxCell>
        <mxCell id="MsyxyNkL6-CA4OaowcqU-8" value="代理到rancher" style="shape=parallelogram;html=1;strokeWidth=2;perimeter=parallelogramPerimeter;whiteSpace=wrap;rounded=1;arcSize=12;size=0.23;" parent="1" vertex="1">
          <mxGeometry x="160" y="1453" width="130" height="60" as="geometry"/>
        </mxCell>
        <mxCell id="MsyxyNkL6-CA4OaowcqU-14" style="edgeStyle=orthogonalEdgeStyle;rounded=0;orthogonalLoop=1;jettySize=auto;html=1;endArrow=none;endFill=0;" parent="1" source="MsyxyNkL6-CA4OaowcqU-11" edge="1">
          <mxGeometry relative="1" as="geometry">
            <mxPoint x="226" y="1542" as="targetPoint"/>
            <mxPoint x="81" y="1522" as="sourcePoint"/>
            <Array as="points">
              <mxPoint x="81" y="1542"/>
            </Array>
          </mxGeometry>
        </mxCell>
        <mxCell id="MsyxyNkL6-CA4OaowcqU-11" value="运行获取&lt;br&gt;rancher token程序" style="shape=parallelogram;html=1;strokeWidth=2;perimeter=parallelogramPerimeter;whiteSpace=wrap;rounded=1;arcSize=12;size=0.23;" parent="1" vertex="1">
          <mxGeometry x="20" y="1453" width="130" height="60" as="geometry"/>
        </mxCell>
        <mxCell id="MsyxyNkL6-CA4OaowcqU-18" value="" style="edgeStyle=orthogonalEdgeStyle;rounded=0;orthogonalLoop=1;jettySize=auto;html=1;endArrow=classic;endFill=1;" parent="1" source="MsyxyNkL6-CA4OaowcqU-15" target="MsyxyNkL6-CA4OaowcqU-17" edge="1">
          <mxGeometry relative="1" as="geometry"/>
        </mxCell>
        <mxCell id="MsyxyNkL6-CA4OaowcqU-15" value="运行获取&lt;br&gt;rancher token程序" style="shape=parallelogram;html=1;strokeWidth=2;perimeter=parallelogramPerimeter;whiteSpace=wrap;rounded=1;arcSize=12;size=0.23;" parent="1" vertex="1">
          <mxGeometry x="630" y="949" width="130" height="60" as="geometry"/>
        </mxCell>
        <mxCell id="MsyxyNkL6-CA4OaowcqU-17" value="结束" style="strokeWidth=2;html=1;shape=mxgraph.flowchart.terminator;whiteSpace=wrap;" parent="1" vertex="1">
          <mxGeometry x="645" y="1065.5" width="100" height="60" as="geometry"/>
        </mxCell>
        <mxCell id="MsyxyNkL6-CA4OaowcqU-19" value="N" style="text;html=1;resizable=0;points=[];autosize=1;align=left;verticalAlign=top;spacingTop=-4;" parent="1" vertex="1">
          <mxGeometry x="150" y="1356.5" width="20" height="20" as="geometry"/>
        </mxCell>
        <mxCell id="hCNxOuC789azjIY-TEfo-1" value="uaa认证请求流程图" style="rounded=1;whiteSpace=wrap;html=1;fillColor=#d5e8d4;strokeColor=#82b366;" parent="1" vertex="1">
          <mxGeometry x="114.5" y="1720" width="237" height="43" as="geometry"/>
        </mxCell>
        <mxCell id="hCNxOuC789azjIY-TEfo-2" value="uaa认证返回流程图" style="rounded=1;whiteSpace=wrap;html=1;fillColor=#d5e8d4;strokeColor=#82b366;" parent="1" vertex="1">
          <mxGeometry x="576.5" y="1720" width="237" height="43" as="geometry"/>
        </mxCell>
        <mxCell id="hCNxOuC789azjIY-TEfo-3" value="内部用户系统维护&lt;br&gt;及rancher认证流程图" style="rounded=1;whiteSpace=wrap;html=1;fillColor=#d5e8d4;strokeColor=#82b366;align=right;" parent="1" vertex="1">
          <mxGeometry x="980" y="1720" width="230" height="43" as="geometry"/>
        </mxCell>
        <mxCell id="hCNxOuC789azjIY-TEfo-4" value="uaa-fronted-proxy项目三个关键流程图" style="rounded=1;whiteSpace=wrap;html=1;fillColor=#d5e8d4;strokeColor=#82b366;" parent="1" vertex="1">
          <mxGeometry x="20" y="660" width="237" height="43" as="geometry"/>
        </mxCell>
        <mxCell id="mqcAec2xRXexYzDcIC-P-18" value="Application Manager" style="rounded=0;whiteSpace=wrap;html=1;verticalAlign=top;container=1;" vertex="1" parent="1">
          <mxGeometry x="1180" y="40" width="380" height="160" as="geometry">
            <mxRectangle x="1240" y="178" width="250" height="32" as="alternateBounds"/>
          </mxGeometry>
        </mxCell>
        <mxCell id="mqcAec2xRXexYzDcIC-P-17" value="&lt;ul style=&quot;box-sizing: border-box ; margin: 20px 0px 2.3em 60px ; padding: 0px ; list-style-type: none ; color: rgb(51 , 51 , 51) ; font-family: , serif ; font-size: 10px ; white-space: normal ; background-color: rgb(255 , 255 , 255)&quot;&gt;&lt;li style=&quot;box-sizing: border-box ; margin: 0px 0px 1em ; padding: 0px ; position: relative&quot;&gt;Application name&lt;/li&gt;&lt;li style=&quot;box-sizing: border-box ; margin: 0px 0px 1em ; padding: 0px ; position: relative&quot;&gt;An icon for the application URL to the application’s home page&lt;/li&gt;&lt;li style=&quot;box-sizing: border-box ; margin: 0px 0px 1em ; padding: 0px ; position: relative&quot;&gt;A short description of the application&lt;/li&gt;&lt;li style=&quot;box-sizing: border-box ; margin: 0px 0px 1em ; padding: 0px ; position: relative&quot;&gt;A link to the application’s privacy policy&lt;/li&gt;&lt;li style=&quot;box-sizing: border-box ; margin: 0px 0px 1em ; padding: 0px ; position: relative&quot;&gt;A list of redirect URLs&lt;/li&gt;&lt;/ul&gt;" style="rounded=0;whiteSpace=wrap;html=1;opacity=80;align=left;" vertex="1" parent="mqcAec2xRXexYzDcIC-P-18">
          <mxGeometry x="120" y="34" width="260" height="126" as="geometry"/>
        </mxCell>
        <mxCell id="mqcAec2xRXexYzDcIC-P-25" value="scopes manage" style="rounded=0;whiteSpace=wrap;html=1;" vertex="1" parent="mqcAec2xRXexYzDcIC-P-18">
          <mxGeometry y="34" width="120" height="126" as="geometry"/>
        </mxCell>
        <mxCell id="mqcAec2xRXexYzDcIC-P-63" value="user manager" style="rounded=1;whiteSpace=wrap;html=1;comic=1;fillColor=#d5e8d4;strokeColor=#82b366;" vertex="1" parent="1">
          <mxGeometry x="980" y="1720" width="95" height="43" as="geometry"/>
        </mxCell>
        <mxCell id="mqcAec2xRXexYzDcIC-P-68" value="" style="group" vertex="1" connectable="0" parent="1">
          <mxGeometry x="1027.5" y="331.5" width="1283" height="247" as="geometry"/>
        </mxCell>
        <mxCell id="mqcAec2xRXexYzDcIC-P-21" value="uaa-fronted-proxy" style="rounded=0;whiteSpace=wrap;html=1;verticalAlign=top;comic=1;fillColor=#eeeeee;strokeColor=#36393d;align=left;fontSize=14;fontStyle=1" vertex="1" parent="mqcAec2xRXexYzDcIC-P-68">
          <mxGeometry x="773" width="280" height="247" as="geometry"/>
        </mxCell>
        <mxCell id="mqcAec2xRXexYzDcIC-P-42" value="" style="rounded=1;whiteSpace=wrap;html=1;opacity=80;align=left;fillColor=#d0cee2;strokeColor=#56517e;shadow=0;comic=1;" vertex="1" parent="mqcAec2xRXexYzDcIC-P-68">
          <mxGeometry y="66" width="170" height="180" as="geometry"/>
        </mxCell>
        <mxCell id="mqcAec2xRXexYzDcIC-P-20" value="oauth2 client" style="rounded=1;whiteSpace=wrap;html=1;comic=1;fillColor=#b1ddf0;strokeColor=#10739e;" vertex="1" parent="mqcAec2xRXexYzDcIC-P-68">
          <mxGeometry x="793" y="64" width="110" height="36" as="geometry"/>
        </mxCell>
        <mxCell id="mqcAec2xRXexYzDcIC-P-22" value="redis" style="rounded=1;whiteSpace=wrap;html=1;comic=1;fillColor=#ffcccc;strokeColor=#36393d;verticalAlign=top;" vertex="1" parent="mqcAec2xRXexYzDcIC-P-68">
          <mxGeometry x="794" y="170" width="239" height="66" as="geometry"/>
        </mxCell>
        <mxCell id="mqcAec2xRXexYzDcIC-P-23" value="proxy" style="rounded=1;whiteSpace=wrap;html=1;comic=1;fillColor=#e1d5e7;strokeColor=#9673a6;" vertex="1" parent="mqcAec2xRXexYzDcIC-P-68">
          <mxGeometry x="923" y="64" width="100" height="36" as="geometry"/>
        </mxCell>
        <mxCell id="mqcAec2xRXexYzDcIC-P-24" value="user manager" style="rounded=1;whiteSpace=wrap;html=1;comic=1;fillColor=#d5e8d4;strokeColor=#82b366;" vertex="1" parent="mqcAec2xRXexYzDcIC-P-68">
          <mxGeometry x="793" y="111" width="110" height="49" as="geometry"/>
        </mxCell>
        <mxCell id="mqcAec2xRXexYzDcIC-P-26" value="&lt;b style=&quot;font-size: 14px;&quot;&gt;raging-uaa&lt;/b&gt;" style="rounded=0;whiteSpace=wrap;html=1;fillColor=#eeeeee;strokeColor=#36393d;shadow=0;glass=0;comic=1;align=left;verticalAlign=top;fontSize=14;" vertex="1" parent="mqcAec2xRXexYzDcIC-P-68">
          <mxGeometry x="223" width="480" height="246" as="geometry"/>
        </mxCell>
        <mxCell id="mqcAec2xRXexYzDcIC-P-28" value="interface" style="rounded=1;whiteSpace=wrap;html=1;verticalAlign=top;align=left;fillColor=#fff2cc;strokeColor=#d6b656;shadow=0;comic=1;fontStyle=1" vertex="1" parent="mqcAec2xRXexYzDcIC-P-68">
          <mxGeometry x="323" y="162" width="360" height="80" as="geometry"/>
        </mxCell>
        <mxCell id="mqcAec2xRXexYzDcIC-P-33" style="edgeStyle=orthogonalEdgeStyle;rounded=0;orthogonalLoop=1;jettySize=auto;html=1;entryX=0;entryY=0.25;entryDx=0;entryDy=0;startArrow=classic;startFill=1;endArrow=none;endFill=0;shadow=0;curved=1;" edge="1" parent="mqcAec2xRXexYzDcIC-P-68" source="mqcAec2xRXexYzDcIC-P-29" target="mqcAec2xRXexYzDcIC-P-28">
          <mxGeometry relative="1" as="geometry"/>
        </mxCell>
        <mxCell id="mqcAec2xRXexYzDcIC-P-29" value="ldap" style="rounded=1;whiteSpace=wrap;html=1;fillColor=#d0cee2;strokeColor=#56517e;shadow=0;comic=1;" vertex="1" parent="mqcAec2xRXexYzDcIC-P-68">
          <mxGeometry x="28" y="79" width="110" height="40" as="geometry"/>
        </mxCell>
        <mxCell id="mqcAec2xRXexYzDcIC-P-34" style="edgeStyle=orthogonalEdgeStyle;rounded=0;orthogonalLoop=1;jettySize=auto;html=1;startArrow=classic;startFill=1;endArrow=none;endFill=0;shadow=0;curved=1;" edge="1" parent="mqcAec2xRXexYzDcIC-P-68" source="mqcAec2xRXexYzDcIC-P-30" target="mqcAec2xRXexYzDcIC-P-28">
          <mxGeometry relative="1" as="geometry"/>
        </mxCell>
        <mxCell id="mqcAec2xRXexYzDcIC-P-30" value="wx" style="rounded=1;whiteSpace=wrap;html=1;fillColor=#d0cee2;strokeColor=#56517e;shadow=0;comic=1;" vertex="1" parent="mqcAec2xRXexYzDcIC-P-68">
          <mxGeometry x="28" y="139" width="110" height="40" as="geometry"/>
        </mxCell>
        <mxCell id="mqcAec2xRXexYzDcIC-P-35" style="edgeStyle=orthogonalEdgeStyle;rounded=0;orthogonalLoop=1;jettySize=auto;html=1;entryX=0;entryY=0.75;entryDx=0;entryDy=0;startArrow=classic;startFill=1;endArrow=none;endFill=0;shadow=0;curved=1;" edge="1" parent="mqcAec2xRXexYzDcIC-P-68" source="mqcAec2xRXexYzDcIC-P-31" target="mqcAec2xRXexYzDcIC-P-28">
          <mxGeometry relative="1" as="geometry"/>
        </mxCell>
        <mxCell id="mqcAec2xRXexYzDcIC-P-31" value="AD" style="rounded=1;whiteSpace=wrap;html=1;fillColor=#d0cee2;strokeColor=#56517e;shadow=0;comic=1;" vertex="1" parent="mqcAec2xRXexYzDcIC-P-68">
          <mxGeometry x="28" y="194" width="110" height="40" as="geometry"/>
        </mxCell>
        <mxCell id="mqcAec2xRXexYzDcIC-P-36" value="&lt;span style=&quot;font-size: 20px&quot;&gt;R&lt;/span&gt;" style="ellipse;html=1;aspect=fixed;fillColor=#dae8fc;strokeColor=#6c8ebf;opacity=80;shadow=0;labelBorderColor=none;labelBackgroundColor=none;whiteSpace=wrap;" vertex="1" parent="mqcAec2xRXexYzDcIC-P-68">
          <mxGeometry x="233" y="172.5" width="56" height="56" as="geometry"/>
        </mxCell>
        <mxCell id="mqcAec2xRXexYzDcIC-P-37" value="userInfo" style="rounded=0;whiteSpace=wrap;html=1;fillColor=#fad7ac;strokeColor=#b46504;shadow=0;comic=1;" vertex="1" parent="mqcAec2xRXexYzDcIC-P-68">
          <mxGeometry x="424" y="196" width="82" height="40" as="geometry"/>
        </mxCell>
        <mxCell id="mqcAec2xRXexYzDcIC-P-38" value="uidGenerator" style="rounded=0;whiteSpace=wrap;html=1;fillColor=#fad7ac;strokeColor=#b46504;shadow=0;comic=1;" vertex="1" parent="mqcAec2xRXexYzDcIC-P-68">
          <mxGeometry x="522" y="196.5" width="82" height="40" as="geometry"/>
        </mxCell>
        <mxCell id="mqcAec2xRXexYzDcIC-P-39" value="login" style="rounded=0;whiteSpace=wrap;html=1;fillColor=#fad7ac;strokeColor=#b46504;shadow=0;comic=1;" vertex="1" parent="mqcAec2xRXexYzDcIC-P-68">
          <mxGeometry x="326" y="196" width="82" height="40" as="geometry"/>
        </mxCell>
        <mxCell id="mqcAec2xRXexYzDcIC-P-40" value="redis" style="rounded=1;whiteSpace=wrap;html=1;fillColor=#f8cecc;strokeColor=#b85450;shadow=0;comic=1;" vertex="1" parent="mqcAec2xRXexYzDcIC-P-68">
          <mxGeometry x="613" y="74" width="71" height="80" as="geometry"/>
        </mxCell>
        <mxCell id="mqcAec2xRXexYzDcIC-P-41" value="Application manager" style="rounded=1;whiteSpace=wrap;html=1;verticalAlign=top;align=left;fillColor=#dae8fc;strokeColor=#6c8ebf;shadow=0;fontStyle=1" vertex="1" parent="mqcAec2xRXexYzDcIC-P-68">
          <mxGeometry x="323" y="74" width="190" height="80" as="geometry"/>
        </mxCell>
        <mxCell id="mqcAec2xRXexYzDcIC-P-27" value="scope manager" style="rounded=1;whiteSpace=wrap;html=1;fillColor=#cce5ff;strokeColor=#36393d;shadow=0;comic=1;" vertex="1" parent="mqcAec2xRXexYzDcIC-P-68">
          <mxGeometry x="333" y="104" width="90" height="40" as="geometry"/>
        </mxCell>
        <mxCell id="mqcAec2xRXexYzDcIC-P-44" value="app base info" style="rounded=1;whiteSpace=wrap;html=1;fillColor=#cce5ff;strokeColor=#36393d;shadow=0;comic=1;" vertex="1" parent="mqcAec2xRXexYzDcIC-P-68">
          <mxGeometry x="433" y="103" width="70" height="40" as="geometry"/>
        </mxCell>
        <mxCell id="mqcAec2xRXexYzDcIC-P-46" value="oauth认证" style="edgeStyle=orthogonalEdgeStyle;curved=1;rounded=0;orthogonalLoop=1;jettySize=auto;html=1;shadow=0;startArrow=classic;startFill=1;endArrow=classic;endFill=1;fontSize=14;entryX=0;entryY=0.5;entryDx=0;entryDy=0;" edge="1" parent="mqcAec2xRXexYzDcIC-P-68" source="mqcAec2xRXexYzDcIC-P-45" target="mqcAec2xRXexYzDcIC-P-20">
          <mxGeometry relative="1" as="geometry"/>
        </mxCell>
        <mxCell id="mqcAec2xRXexYzDcIC-P-45" value="oauth2 server" style="rounded=1;whiteSpace=wrap;html=1;fillColor=#b1ddf0;strokeColor=#10739e;shadow=0;comic=1;" vertex="1" parent="mqcAec2xRXexYzDcIC-P-68">
          <mxGeometry x="324" y="27" width="360" height="40" as="geometry"/>
        </mxCell>
        <mxCell id="mqcAec2xRXexYzDcIC-P-55" style="edgeStyle=orthogonalEdgeStyle;curved=1;rounded=0;orthogonalLoop=1;jettySize=auto;html=1;entryX=1;entryY=0.25;entryDx=0;entryDy=0;shadow=0;startArrow=classic;startFill=1;endArrow=none;endFill=0;fontSize=14;fontColor=#000000;" edge="1" parent="mqcAec2xRXexYzDcIC-P-68" source="mqcAec2xRXexYzDcIC-P-48" target="mqcAec2xRXexYzDcIC-P-24">
          <mxGeometry relative="1" as="geometry"/>
        </mxCell>
        <mxCell id="mqcAec2xRXexYzDcIC-P-48" value="third-apps" style="rounded=1;whiteSpace=wrap;html=1;opacity=80;align=center;fillColor=#d0cee2;strokeColor=#56517e;shadow=0;comic=1;fontColor=#000000;verticalAlign=top;fontSize=14;fontStyle=1" vertex="1" parent="mqcAec2xRXexYzDcIC-P-68">
          <mxGeometry x="1123" y="50" width="160" height="184" as="geometry"/>
        </mxCell>
        <mxCell id="mqcAec2xRXexYzDcIC-P-49" value="gitlab" style="rounded=1;whiteSpace=wrap;html=1;fillColor=#d0cee2;strokeColor=#56517e;shadow=0;comic=1;fontStyle=0" vertex="1" parent="mqcAec2xRXexYzDcIC-P-68">
          <mxGeometry x="1201" y="95" width="70" height="30" as="geometry"/>
        </mxCell>
        <mxCell id="mqcAec2xRXexYzDcIC-P-50" value="rancher" style="rounded=1;whiteSpace=wrap;html=1;fillColor=#d0cee2;strokeColor=#56517e;shadow=0;comic=1;fontStyle=0" vertex="1" parent="mqcAec2xRXexYzDcIC-P-68">
          <mxGeometry x="1201" y="141" width="70" height="30" as="geometry"/>
        </mxCell>
        <mxCell id="mqcAec2xRXexYzDcIC-P-51" value="..." style="rounded=1;whiteSpace=wrap;html=1;fillColor=#d0cee2;strokeColor=#56517e;shadow=0;comic=1;fontStyle=0" vertex="1" parent="mqcAec2xRXexYzDcIC-P-68">
          <mxGeometry x="1203" y="187" width="70" height="30" as="geometry"/>
        </mxCell>
        <mxCell id="mqcAec2xRXexYzDcIC-P-59" value="token manager" style="rounded=1;whiteSpace=wrap;html=1;fillColor=#b0e3e6;strokeColor=#0e8088;shadow=0;comic=1;" vertex="1" parent="mqcAec2xRXexYzDcIC-P-68">
          <mxGeometry x="521" y="75" width="84" height="76" as="geometry"/>
        </mxCell>
        <mxCell id="mqcAec2xRXexYzDcIC-P-60" value="token store" style="rounded=1;whiteSpace=wrap;html=1;comic=1;fillColor=#ffcccc;strokeColor=#36393d;verticalAlign=middle;" vertex="1" parent="mqcAec2xRXexYzDcIC-P-68">
          <mxGeometry x="803" y="196" width="100" height="36" as="geometry"/>
        </mxCell>
        <mxCell id="mqcAec2xRXexYzDcIC-P-61" value="user store" style="rounded=1;whiteSpace=wrap;html=1;comic=1;fillColor=#ffcccc;strokeColor=#36393d;verticalAlign=middle;" vertex="1" parent="mqcAec2xRXexYzDcIC-P-68">
          <mxGeometry x="923" y="194" width="100" height="36" as="geometry"/>
        </mxCell>
        <mxCell id="mqcAec2xRXexYzDcIC-P-69" value="&lt;div class=&quot;gtx-body&quot; style=&quot;display: inline ; font-size: 18px ; margin: 5px auto ; padding: 5px 0px ; color: rgb(37 , 37 , 37) ; font-family: &amp;quot;roboto&amp;quot; , &amp;quot;arial&amp;quot; , sans-serif ; white-space: normal&quot;&gt;browser&lt;/div&gt;" style="rounded=1;whiteSpace=wrap;html=1;shadow=0;glass=0;comic=1;labelBackgroundColor=none;fontSize=14;opacity=80;align=center;fillColor=#dae8fc;strokeColor=#6c8ebf;horizontal=1;spacingBottom=40;fontStyle=1;gradientColor=#7ea6e0;" vertex="1" parent="1">
          <mxGeometry x="1556" y="960" width="80" height="320" as="geometry"/>
        </mxCell>
        <mxCell id="mqcAec2xRXexYzDcIC-P-72" style="edgeStyle=orthogonalEdgeStyle;curved=1;rounded=0;orthogonalLoop=1;jettySize=auto;html=1;entryX=0;entryY=0.5;entryDx=0;entryDy=0;shadow=0;startArrow=none;startFill=0;endArrow=classic;endFill=1;fontSize=14;fontColor=#000000;" edge="1" parent="1" source="mqcAec2xRXexYzDcIC-P-71" target="mqcAec2xRXexYzDcIC-P-69">
          <mxGeometry relative="1" as="geometry"/>
        </mxCell>
        <mxCell id="mqcAec2xRXexYzDcIC-P-71" value="Actor" style="shape=umlActor;verticalLabelPosition=bottom;labelBackgroundColor=#ffffff;verticalAlign=top;html=1;outlineConnect=0;rounded=1;shadow=0;glass=0;comic=1;fontSize=14;opacity=80;align=right;fillColor=#bac8d3;strokeColor=#23445d;" vertex="1" parent="1">
          <mxGeometry x="1450" y="1093.5" width="30" height="60" as="geometry"/>
        </mxCell>
        <mxCell id="mqcAec2xRXexYzDcIC-P-85" style="edgeStyle=orthogonalEdgeStyle;rounded=0;orthogonalLoop=1;jettySize=auto;html=1;shadow=0;startArrow=none;startFill=0;endArrow=classic;endFill=1;fontSize=12;fontColor=#000000;curved=1;fillColor=#e51400;strokeColor=#B20000;" edge="1" parent="1" source="mqcAec2xRXexYzDcIC-P-73" target="mqcAec2xRXexYzDcIC-P-80">
          <mxGeometry relative="1" as="geometry"/>
        </mxCell>
        <mxCell id="mqcAec2xRXexYzDcIC-P-73" value="&lt;div class=&quot;gtx-body&quot; style=&quot;display: inline; font-size: 12px; margin: 5px auto; padding: 5px 0px; color: rgb(37, 37, 37); font-family: roboto, arial, sans-serif; white-space: normal;&quot;&gt;Gitlab&lt;/div&gt;" style="rounded=1;whiteSpace=wrap;html=1;shadow=0;glass=0;comic=1;labelBackgroundColor=none;fontSize=12;opacity=50;align=center;fillColor=#d0cee2;strokeColor=#56517e;" vertex="1" parent="1">
          <mxGeometry x="1560" y="975.5" width="70" height="37" as="geometry"/>
        </mxCell>
        <mxCell id="mqcAec2xRXexYzDcIC-P-86" style="edgeStyle=orthogonalEdgeStyle;curved=1;rounded=0;orthogonalLoop=1;jettySize=auto;html=1;shadow=0;startArrow=none;startFill=0;endArrow=classic;endFill=1;fontSize=12;fontColor=#000000;fillColor=#e51400;strokeColor=#B20000;" edge="1" parent="1" source="mqcAec2xRXexYzDcIC-P-74" target="mqcAec2xRXexYzDcIC-P-81">
          <mxGeometry relative="1" as="geometry"/>
        </mxCell>
        <mxCell id="mqcAec2xRXexYzDcIC-P-74" value="&lt;div class=&quot;gtx-body&quot; style=&quot;display: inline; font-size: 12px; margin: 5px auto; padding: 5px 0px; color: rgb(37, 37, 37); font-family: roboto, arial, sans-serif; white-space: normal;&quot;&gt;Jenkins&lt;/div&gt;" style="rounded=1;whiteSpace=wrap;html=1;shadow=0;glass=0;comic=1;labelBackgroundColor=none;fontSize=12;opacity=50;align=center;fillColor=#d0cee2;strokeColor=#56517e;" vertex="1" parent="1">
          <mxGeometry x="1560" y="1029" width="70" height="37" as="geometry"/>
        </mxCell>
        <mxCell id="mqcAec2xRXexYzDcIC-P-87" style="edgeStyle=orthogonalEdgeStyle;curved=1;rounded=0;orthogonalLoop=1;jettySize=auto;html=1;shadow=0;startArrow=none;startFill=0;endArrow=classic;endFill=1;fontSize=12;fontColor=#000000;fillColor=#e51400;strokeColor=#B20000;" edge="1" parent="1" source="mqcAec2xRXexYzDcIC-P-75" target="mqcAec2xRXexYzDcIC-P-82">
          <mxGeometry relative="1" as="geometry"/>
        </mxCell>
        <mxCell id="mqcAec2xRXexYzDcIC-P-75" value="&lt;font color=&quot;#252525&quot; face=&quot;roboto, arial, sans-serif&quot; style=&quot;font-size: 12px;&quot;&gt;&lt;span style=&quot;font-size: 12px;&quot;&gt;Rancher&lt;/span&gt;&lt;/font&gt;" style="rounded=1;whiteSpace=wrap;html=1;shadow=0;glass=0;comic=1;labelBackgroundColor=none;fontSize=12;opacity=50;align=center;fillColor=#d0cee2;strokeColor=#56517e;" vertex="1" parent="1">
          <mxGeometry x="1560" y="1125.5" width="70" height="37" as="geometry"/>
        </mxCell>
        <mxCell id="mqcAec2xRXexYzDcIC-P-88" style="edgeStyle=orthogonalEdgeStyle;curved=1;rounded=0;orthogonalLoop=1;jettySize=auto;html=1;shadow=0;startArrow=none;startFill=0;endArrow=classic;endFill=1;fontSize=12;fontColor=#000000;fillColor=#e51400;strokeColor=#B20000;" edge="1" parent="1" source="mqcAec2xRXexYzDcIC-P-76" target="mqcAec2xRXexYzDcIC-P-83">
          <mxGeometry relative="1" as="geometry"/>
        </mxCell>
        <mxCell id="mqcAec2xRXexYzDcIC-P-76" value="&lt;font color=&quot;#252525&quot; face=&quot;roboto, arial, sans-serif&quot; style=&quot;font-size: 12px;&quot;&gt;&lt;span style=&quot;font-size: 12px;&quot;&gt;App1&lt;/span&gt;&lt;/font&gt;" style="rounded=1;whiteSpace=wrap;html=1;shadow=0;glass=0;comic=1;labelBackgroundColor=none;fontSize=12;opacity=50;align=center;fillColor=#d0cee2;strokeColor=#56517e;" vertex="1" parent="1">
          <mxGeometry x="1560" y="1180" width="70" height="37" as="geometry"/>
        </mxCell>
        <mxCell id="mqcAec2xRXexYzDcIC-P-90" style="edgeStyle=orthogonalEdgeStyle;curved=1;rounded=0;orthogonalLoop=1;jettySize=auto;html=1;entryX=0;entryY=0.5;entryDx=0;entryDy=0;shadow=0;startArrow=none;startFill=0;endArrow=classic;endFill=1;fontSize=12;fontColor=#000000;fillColor=#e51400;strokeColor=#B20000;" edge="1" parent="1" source="mqcAec2xRXexYzDcIC-P-77" target="mqcAec2xRXexYzDcIC-P-84">
          <mxGeometry relative="1" as="geometry"/>
        </mxCell>
        <mxCell id="mqcAec2xRXexYzDcIC-P-77" value="&lt;font color=&quot;#252525&quot; face=&quot;roboto, arial, sans-serif&quot; style=&quot;font-size: 12px;&quot;&gt;&lt;span style=&quot;font-size: 12px;&quot;&gt;App2&lt;/span&gt;&lt;/font&gt;" style="rounded=1;whiteSpace=wrap;html=1;shadow=0;glass=0;comic=1;labelBackgroundColor=none;fontSize=12;opacity=50;align=center;fillColor=#d0cee2;strokeColor=#56517e;" vertex="1" parent="1">
          <mxGeometry x="1560" y="1234.5" width="70" height="37" as="geometry"/>
        </mxCell>
        <mxCell id="mqcAec2xRXexYzDcIC-P-80" value="&lt;div class=&quot;gtx-body&quot; style=&quot;display: inline; font-size: 12px; margin: 5px auto; padding: 5px 0px; color: rgb(37, 37, 37); font-family: roboto, arial, sans-serif; white-space: normal;&quot;&gt;Gitlab&lt;/div&gt;" style="rounded=1;whiteSpace=wrap;html=1;shadow=0;glass=0;comic=1;labelBackgroundColor=none;fontSize=12;opacity=50;align=center;fillColor=#d0cee2;strokeColor=#56517e;" vertex="1" parent="1">
          <mxGeometry x="1861" y="933" width="90" height="57" as="geometry"/>
        </mxCell>
        <mxCell id="mqcAec2xRXexYzDcIC-P-81" value="&lt;div class=&quot;gtx-body&quot; style=&quot;display: inline; font-size: 12px; margin: 5px auto; padding: 5px 0px; color: rgb(37, 37, 37); font-family: roboto, arial, sans-serif; white-space: normal;&quot;&gt;Jenkins&lt;/div&gt;" style="rounded=1;whiteSpace=wrap;html=1;shadow=0;glass=0;comic=1;labelBackgroundColor=none;fontSize=12;opacity=50;align=center;fillColor=#d0cee2;strokeColor=#56517e;" vertex="1" parent="1">
          <mxGeometry x="1861" y="1003" width="90" height="57" as="geometry"/>
        </mxCell>
        <mxCell id="mqcAec2xRXexYzDcIC-P-82" value="&lt;font color=&quot;#252525&quot; face=&quot;roboto, arial, sans-serif&quot; style=&quot;font-size: 12px;&quot;&gt;&lt;span style=&quot;font-size: 12px;&quot;&gt;Rancher&lt;/span&gt;&lt;/font&gt;" style="rounded=1;whiteSpace=wrap;html=1;shadow=0;glass=0;comic=1;labelBackgroundColor=none;fontSize=12;opacity=50;align=center;fillColor=#d0cee2;strokeColor=#56517e;" vertex="1" parent="1">
          <mxGeometry x="1861" y="1125" width="90" height="57" as="geometry"/>
        </mxCell>
        <mxCell id="mqcAec2xRXexYzDcIC-P-83" value="&lt;font color=&quot;#252525&quot; face=&quot;roboto, arial, sans-serif&quot; style=&quot;font-size: 12px;&quot;&gt;&lt;span style=&quot;font-size: 12px;&quot;&gt;App1&lt;/span&gt;&lt;/font&gt;" style="rounded=1;whiteSpace=wrap;html=1;shadow=0;glass=0;comic=1;labelBackgroundColor=none;fontSize=12;opacity=50;align=center;fillColor=#d0cee2;strokeColor=#56517e;" vertex="1" parent="1">
          <mxGeometry x="1861" y="1196" width="90" height="57" as="geometry"/>
        </mxCell>
        <mxCell id="mqcAec2xRXexYzDcIC-P-84" value="&lt;font color=&quot;#252525&quot; face=&quot;roboto, arial, sans-serif&quot; style=&quot;font-size: 12px;&quot;&gt;&lt;span style=&quot;font-size: 12px;&quot;&gt;App2&lt;/span&gt;&lt;/font&gt;" style="rounded=1;whiteSpace=wrap;html=1;shadow=0;glass=0;comic=1;labelBackgroundColor=none;fontSize=12;opacity=50;align=center;fillColor=#d0cee2;strokeColor=#56517e;" vertex="1" parent="1">
          <mxGeometry x="1861" y="1267" width="90" height="57" as="geometry"/>
        </mxCell>
        <mxCell id="mqcAec2xRXexYzDcIC-P-93" value="" style="shape=image;html=1;verticalAlign=top;verticalLabelPosition=bottom;labelBackgroundColor=#ffffff;imageAspect=0;aspect=fixed;image=https://cdn0.iconfinder.com/data/icons/picons-social/57/66-wechat-128.png;rounded=1;shadow=0;glass=0;comic=1;fontSize=12;fontColor=#000000;opacity=50;align=center;" vertex="1" parent="1">
          <mxGeometry x="1921" y="1295" width="29" height="29" as="geometry"/>
        </mxCell>
        <mxCell id="mqcAec2xRXexYzDcIC-P-95" value="" style="shape=image;html=1;verticalAlign=top;verticalLabelPosition=bottom;labelBackgroundColor=#ffffff;imageAspect=0;aspect=fixed;image=https://cdn0.iconfinder.com/data/icons/picons-social/57/66-wechat-128.png;rounded=1;shadow=0;glass=0;comic=1;fontSize=12;fontColor=#000000;opacity=50;align=center;" vertex="1" parent="1">
          <mxGeometry x="1920" y="1226" width="29" height="29" as="geometry"/>
        </mxCell>
        <mxCell id="mqcAec2xRXexYzDcIC-P-96" value="" style="shape=image;html=1;verticalAlign=top;verticalLabelPosition=bottom;labelBackgroundColor=#ffffff;imageAspect=0;aspect=fixed;image=https://cdn0.iconfinder.com/data/icons/picons-social/57/66-wechat-128.png;rounded=1;shadow=0;glass=0;comic=1;fontSize=12;fontColor=#000000;opacity=50;align=center;" vertex="1" parent="1">
          <mxGeometry x="1921" y="1155" width="29" height="29" as="geometry"/>
        </mxCell>
        <mxCell id="mqcAec2xRXexYzDcIC-P-97" value="" style="shape=image;verticalLabelPosition=bottom;labelBackgroundColor=#ffffff;verticalAlign=top;aspect=fixed;imageAspect=0;image=data:image/png,iVBORw0KGgoAAAANSUhEUgAAAMgAAADICAYAAACtWK6eAAANZElEQVR4Xu2d324bxxXG5+xSJK3YUhPDCaooCYJsJXK8tR3TsgK0QIHmLQoUyCP0su192xcIECDvUPQFivSifQKDJGDAMHzl+8Q2acoWpzjbXXmrPxT/zOic5X4CDBrS7pnZ7zcfv9nl7pAMfqAAFLhQAYI2UAAKXKwADILRAQVmKACDYHhAARgEYwAKLKcAEmQ53bBXTRSAQWoCGoe5nAIwyHK6Ya+aKACD1AQ0DnM5BWCQ5XTDXjVRAAapCWgc5nIKwCDL6Ya9aqIADFIT0DjM5RSAQZbTDXvVRAEYpCag1+kwd3d3r924ceMgjuOb/X7/HyGPDQYJqS5q+1Cg0e127xDRQRRFD40xB8YYa4yJnXP/GgwGv/XRyEU1YJCQ6qL2ogpQp9P5BRshiiI2wkPn3D0iap9XCAZZVF5sXykF9vb2Po7jmKdKRTI8MMb8bN6DgEHmVQrbqVcgSZKtdrt9yFMk51xmCCLaWaXjMMgq6mFfMQWSJGk1Go37jUYjM0JuiISIvE7pYRAxxGh4AQWiNE3TIhX4vIGIUmNMY4EaS20KgywlG3YKqUCapl8457IT6HyadN8YsxmyzYtqwyASqqPNEwWSJLnVarW+yi+tFob4QItEMIgWEjXoh7X2On/WUEoGNsQnmg8dBtFMp8J9s9Y2jTH8+cKJIYwxHd8n0aElgkFCK1yP+mSt7eYnz3xplT9840+m2SSV/oFBKo1PpvPdbvczNgGfN/An0s65HhFdl+lN2FZhkLD6Vr66tZZPmA9L9yjxlOnDyh/YnAcAg8wpVB0229nZ2dze3n5w6qa9z+tw7LjMW2fK5x97dgdr6R4lnjLxeUQMqd4pgASpx2ig/f39Pb5pr5gqzbqDtR6SzHeUMMh8OlVqqyRJdtvtNp8rZPcoERHfwbpdqYNQ0lkYRAkIX93o9Xobk8nkyFe9uteBQdZsBMAgfoHCIH71FK8Gg/hFAIP41VO8GgziFwEM4ldP8WowiF8EMIhfPReq1u127/MVpuFw+P1CO16yMT9b5LNenWvBIFdDP7uZL7+zlS+58iXYu7yShnPODQaDyFc3kCC+lPxfHRjEr55ZteKJuPzzB/4sgpPi3Jv5YJAAADyWhEFWFLP0oVyRDPz6/rxlYZB5lZLZDgZZQPdOp3OTiA45GXi6lE+ZPlqgxJlNYZBV1Au/Lwxygca8xlKz2cxu1yimSkT0qW8kMIhvRf3Wg0GMMbxQ8dbWFj/0w4Yopkre11g6Dx0M4ndA+65WO4Pws9JEdLecDJK3ecMgvoe033rrbpA4TdPb+WXVLBmcc7/U9Kw0DOJ3QPuutk4GOXnmgadJ+crdXxpjrvkWzWc9GMSnmv5rrYVBrLXfRFH0rTHmPf8Sha/Y7/e9rieLT9L9MXPO/TAYDL72V/FsJa/wz+tomqZ/Nsb8JeRBhKqNBAmlrJ+6a5EgMMi7wYBbTfwYo6gCg/jVc+FqSJCFJbvSHWCQK5X7bGMwiDCAS5qHQYT5wCDCAGAQ9QBwu7tiREgQYThIEGEASBD1AJAgihEhQYThIEGEASBB1ANAgihGhAQRhoMEEQaABFEPAAmiGBESRBgOEkQYABJEPQAkiGJESBBhOEgQYQBIEPUAkCCKESFBhOEgQYQBIEHUA0CCKEaEBBGGgwQRBoAEUQ8ACaIYERJEGA4SRBgAEkQ9ACSIYkRIEGE4SBBhAEgQ9QCQIIoRIUGE4SBBhAEgQdQDQIIoRoQEEYaDBBEGgARRDwAJohgREkQYDhJEGAASRD0AJIhiREgQYThIEGEASBD1AJAgihEhQYThIEGEASBB1ANAgihGhAQRhoMEEQaABFEPAAmiGNFaJIi19k9RFP1Vsc4zu4Yv8VRDbuScGxljRkSUvU6n038Ph8M/hOwhvsRzhrqYYs0eeqwPEb3mgVsM2vIgLv6f/31cHtz8O/4XRVH2yv+m0+kojuPs9fj4eNRqtUYvXrwYP3v27HVIE8yqDYOsqUGcc5MZg3bMf7toMJcHbfn/cRyPeeC+fft29PLly9Hz58950DupwXsV7QY3iLX2j1EU/e0qDiZEGyGmWM65n/J303FpkL5yzp15lzXGvCzepYttedBOp1Pe91UURVkNHrgbGxujN2/ejB4/fvwihBZ1rBncIPga6DoOq/U55qoa5A2/A/M7bj5VKN55s3dTIuLXM7/LT+zGxbsuvwvnc94xz3v59/zaaDTGr1+/Hj958uSVMeZ4fXDjSBZVILhBrLW/I6Lf86AtDepsIOcnaTwoedBmA778u9ODFtOHRfFi+1UVCG6QVTuI/aGApAIwiKT6aFu9AjCIekTooKQCMIik+mhbvQIwiHpE6KCkAjCIpPpoW70CMIh6ROigpAIwiKT6aFu9AjCIekTooKQCMIik+mhbvQIwiHpE6KCkAjCIpPpoW70CMIh6ROigpAIwiKT6aFu9AjCIekTooKQCMIik+mhbvQIwiHpE6KCkAjCIpPpoW70CwQ1irf01Ef0qf048e6y2ePabl5Hhx2r5kdtGo8HLyYwnk8no6dOnP6pXDh2shQLBDbLCqibHpQUYeCW9kwUaCrOVf3dqcbJs0YbS8+28INmJGYv1ncbj8Xhzc3M0HA6PakEbB7mwAsENUqGlR8vrUmUGI6Kf+v3+bxZWFTusjQIwyCUofS8cd/v27X+ek4a84gsvMTQ5tdJLseJLlob5MkVjnoqWlibiRejwE0iB4AZZYYoV6JDnL1uhtXnf5Il3ej0wTsEiDU8vu3Tyt/JaYvn54cl54vHxMa8dNj46Oho3m83xcDjk6e50fhWrvSUMMoNfhQxypaPQOXdUNl7JnNm5YvGvtE2x5tn/GfbUGmiZKdmQvIQqG7Ldbo8fPXrE9cQMGdwgFToHOXeQ+Z5ipWm61os9B3Tqj+WUZPNNp9P/4OsPAip+WWkkyGUKyf59Lb5AB+cg7wZRr9fbmEwmuKTsyVcwiCchly2DBFlWuavZDwa5Gp0vbAUGEQZwSfMwiDAfGEQYAAyiHgC+5VYxIiSIMBwkiDAAJIh6AEgQxYiQIMJwkCDCAJAg6gEgQRQjQoIIw0GCCANAgqgHgARRjAgJIgwHCSIMAAmiHgASRDEiJIgwHCSIMAAkiHoASBDFiJAgwnCQIMIAkCDqASBBFCNCggjDQYIIA0CCqAeABFGMCAkiDAcJIgwACaIeABJEMSIkiDAcJIgwACSIegBIEMWIkCDCcJAgwgCQIOoBIEEUI0KCCMNBgggDQIKoB4AEUYwICSIMBwkiDAAJoh4AEkQxIiSIMBwkiDAAJIh6AEgQxYiQIMJwkCDCAJAg6gEgQRQjQoIIw0GCCANAgqgHgARRjGgtEsRa+00URd8aY95TrPWFXcOXeOql5pz7YTAYfB2yh8G/5TbvPO3v7+/FcXwQRdGBMeaBMeZLY8y1kAe3am1MsVZVMOz+a5EgMySK0zS9bYxhwxSmuWOM2Qgr6/zVYZD5tZLYct0NckZTa22TiO4WpiEiTpquMSYWAoBzEAnh52yzdgY5T5fd3d1rW1tbPSIqUoZfEyIKPj1Egsw5UoU2g0EuED5Jkq1ms5lNzfKU4ddPfXOCQXwr6rceDLKAnp1O5yYRHfKFAOfcgzxxPlqgxJlNYZBV1Au/LwyyosZpmn6SXzErpmd8TvP+vGVhkHmVktkOBgmge5qmXzjnTqZnzrn7RHT9vKZgkAAAPJaEQTyKOaNUZK3t5FOyImnuElEbBrkaAMu2AoMsq5yH/dI05enYQb/f/85DuZMSaZo6n/XqXGudPkmvM8eTY+/1ehuTyeQIYvhRAAniR0c1VWAQvyhgEL96ileDQfwigEH86ileDQbxiwAG8auneDUYxC8CGMSvniqq7e3tfdxsNh/yFTLn3MP8VpltFZ2rWCdgkIoBW7K75WdlCuPc489hlqxXm91gkNqgPnOgjW63eyeO48wwxhh+FbvtXysGGEQrGYF+7ezsbG5vb2c3YUZRVBjnc4GuqGkSBlGDQmdHrLUfGGMOS4bhtPlQZ2/99woG8a/p2lfsdrufEVGWMGwc5xw/bHbuzZhVFwMGqTpBHf0na60tzmV40Qzn3B0iauro3vK9gEGW1w57zlCAn/03xtzjk38+p+HEcc7tX8VjzD7BwCA+1UStmQpYa3kalhkmf5SZp2n8wJnaHxhELZp6dCxJklutVuur0qVmThu+MKDiBwZRgQGdKCtQeiIzuxBARPeNMZsSKsEgEqqjzUUVyBYA5NtmiqQhotQY01i00KLbwyCLKobtVSiQJEmr3W73ivvNcuN4X8sMBlGBG53woQCvZdZutw/5QkC+aAZfEPj5KrVhkFXUw77qFVj1zmYYRD1idNCzAgvd2QyDeFYf5SqpwIV3NsMgleSJTodWoLizOYqiW4PB4O8h2wu+QnrIzqM2FAitAAwSWmHUr7QCMEil8aHzoRWAQUIrjPqVVgAGqTQ+dD60AjBIaIVRv9IKwCCVxofOh1YABgmtMOpXWgEYpNL40PnQCsAgoRVG/UorAINUGh86H1oBGCS0wqhfaQVgkErjQ+dDKwCDhFYY9SutwH8BbvOSbigIv4EAAAAASUVORK5CYII=;" vertex="1" parent="1">
          <mxGeometry x="1921" y="962" width="28" height="28" as="geometry"/>
        </mxCell>
        <mxCell id="mqcAec2xRXexYzDcIC-P-98" value="" style="shape=image;verticalLabelPosition=bottom;labelBackgroundColor=#ffffff;verticalAlign=top;aspect=fixed;imageAspect=0;image=data:image/png,iVBORw0KGgoAAAANSUhEUgAAAMgAAADICAYAAACtWK6eAAANZElEQVR4Xu2d324bxxXG5+xSJK3YUhPDCaooCYJsJXK8tR3TsgK0QIHmLQoUyCP0su192xcIECDvUPQFivSifQKDJGDAMHzl+8Q2acoWpzjbXXmrPxT/zOic5X4CDBrS7pnZ7zcfv9nl7pAMfqAAFLhQAYI2UAAKXKwADILRAQVmKACDYHhAARgEYwAKLKcAEmQ53bBXTRSAQWoCGoe5nAIwyHK6Ya+aKACD1AQ0DnM5BWCQ5XTDXjVRAAapCWgc5nIKwCDL6Ya9aqIADFIT0DjM5RSAQZbTDXvVRAEYpCag1+kwd3d3r924ceMgjuOb/X7/HyGPDQYJqS5q+1Cg0e127xDRQRRFD40xB8YYa4yJnXP/GgwGv/XRyEU1YJCQ6qL2ogpQp9P5BRshiiI2wkPn3D0iap9XCAZZVF5sXykF9vb2Po7jmKdKRTI8MMb8bN6DgEHmVQrbqVcgSZKtdrt9yFMk51xmCCLaWaXjMMgq6mFfMQWSJGk1Go37jUYjM0JuiISIvE7pYRAxxGh4AQWiNE3TIhX4vIGIUmNMY4EaS20KgywlG3YKqUCapl8457IT6HyadN8YsxmyzYtqwyASqqPNEwWSJLnVarW+yi+tFob4QItEMIgWEjXoh7X2On/WUEoGNsQnmg8dBtFMp8J9s9Y2jTH8+cKJIYwxHd8n0aElgkFCK1yP+mSt7eYnz3xplT9840+m2SSV/oFBKo1PpvPdbvczNgGfN/An0s65HhFdl+lN2FZhkLD6Vr66tZZPmA9L9yjxlOnDyh/YnAcAg8wpVB0229nZ2dze3n5w6qa9z+tw7LjMW2fK5x97dgdr6R4lnjLxeUQMqd4pgASpx2ig/f39Pb5pr5gqzbqDtR6SzHeUMMh8OlVqqyRJdtvtNp8rZPcoERHfwbpdqYNQ0lkYRAkIX93o9Xobk8nkyFe9uteBQdZsBMAgfoHCIH71FK8Gg/hFAIP41VO8GgziFwEM4ldP8WowiF8EMIhfPReq1u127/MVpuFw+P1CO16yMT9b5LNenWvBIFdDP7uZL7+zlS+58iXYu7yShnPODQaDyFc3kCC+lPxfHRjEr55ZteKJuPzzB/4sgpPi3Jv5YJAAADyWhEFWFLP0oVyRDPz6/rxlYZB5lZLZDgZZQPdOp3OTiA45GXi6lE+ZPlqgxJlNYZBV1Au/Lwxygca8xlKz2cxu1yimSkT0qW8kMIhvRf3Wg0GMMbxQ8dbWFj/0w4Yopkre11g6Dx0M4ndA+65WO4Pws9JEdLecDJK3ecMgvoe033rrbpA4TdPb+WXVLBmcc7/U9Kw0DOJ3QPuutk4GOXnmgadJ+crdXxpjrvkWzWc9GMSnmv5rrYVBrLXfRFH0rTHmPf8Sha/Y7/e9rieLT9L9MXPO/TAYDL72V/FsJa/wz+tomqZ/Nsb8JeRBhKqNBAmlrJ+6a5EgMMi7wYBbTfwYo6gCg/jVc+FqSJCFJbvSHWCQK5X7bGMwiDCAS5qHQYT5wCDCAGAQ9QBwu7tiREgQYThIEGEASBD1AJAgihEhQYThIEGEASBB1ANAgihGhAQRhoMEEQaABFEPAAmiGBESRBgOEkQYABJEPQAkiGJESBBhOEgQYQBIEPUAkCCKESFBhOEgQYQBIEHUA0CCKEaEBBGGgwQRBoAEUQ8ACaIYERJEGA4SRBgAEkQ9ACSIYkRIEGE4SBBhAEgQ9QCQIIoRIUGE4SBBhAEgQdQDQIIoRoQEEYaDBBEGgARRDwAJohgREkQYDhJEGAASRD0AJIhiREgQYThIEGEASBD1AJAgihEhQYThIEGEASBB1ANAgihGhAQRhoMEEQaABFEPAAmiGNFaJIi19k9RFP1Vsc4zu4Yv8VRDbuScGxljRkSUvU6n038Ph8M/hOwhvsRzhrqYYs0eeqwPEb3mgVsM2vIgLv6f/31cHtz8O/4XRVH2yv+m0+kojuPs9fj4eNRqtUYvXrwYP3v27HVIE8yqDYOsqUGcc5MZg3bMf7toMJcHbfn/cRyPeeC+fft29PLly9Hz58950DupwXsV7QY3iLX2j1EU/e0qDiZEGyGmWM65n/J303FpkL5yzp15lzXGvCzepYttedBOp1Pe91UURVkNHrgbGxujN2/ejB4/fvwihBZ1rBncIPga6DoOq/U55qoa5A2/A/M7bj5VKN55s3dTIuLXM7/LT+zGxbsuvwvnc94xz3v59/zaaDTGr1+/Hj958uSVMeZ4fXDjSBZVILhBrLW/I6Lf86AtDepsIOcnaTwoedBmA778u9ODFtOHRfFi+1UVCG6QVTuI/aGApAIwiKT6aFu9AjCIekTooKQCMIik+mhbvQIwiHpE6KCkAjCIpPpoW70CMIh6ROigpAIwiKT6aFu9AjCIekTooKQCMIik+mhbvQIwiHpE6KCkAjCIpPpoW70CMIh6ROigpAIwiKT6aFu9AjCIekTooKQCMIik+mhbvQIwiHpE6KCkAjCIpPpoW70CwQ1irf01Ef0qf048e6y2ePabl5Hhx2r5kdtGo8HLyYwnk8no6dOnP6pXDh2shQLBDbLCqibHpQUYeCW9kwUaCrOVf3dqcbJs0YbS8+28INmJGYv1ncbj8Xhzc3M0HA6PakEbB7mwAsENUqGlR8vrUmUGI6Kf+v3+bxZWFTusjQIwyCUofS8cd/v27X+ek4a84gsvMTQ5tdJLseJLlob5MkVjnoqWlibiRejwE0iB4AZZYYoV6JDnL1uhtXnf5Il3ej0wTsEiDU8vu3Tyt/JaYvn54cl54vHxMa8dNj46Oho3m83xcDjk6e50fhWrvSUMMoNfhQxypaPQOXdUNl7JnNm5YvGvtE2x5tn/GfbUGmiZKdmQvIQqG7Ldbo8fPXrE9cQMGdwgFToHOXeQ+Z5ipWm61os9B3Tqj+WUZPNNp9P/4OsPAip+WWkkyGUKyf59Lb5AB+cg7wZRr9fbmEwmuKTsyVcwiCchly2DBFlWuavZDwa5Gp0vbAUGEQZwSfMwiDAfGEQYAAyiHgC+5VYxIiSIMBwkiDAAJIh6AEgQxYiQIMJwkCDCAJAg6gEgQRQjQoIIw0GCCANAgqgHgARRjAgJIgwHCSIMAAmiHgASRDEiJIgwHCSIMAAkiHoASBDFiJAgwnCQIMIAkCDqASBBFCNCggjDQYIIA0CCqAeABFGMCAkiDAcJIgwACaIeABJEMSIkiDAcJIgwACSIegBIEMWIkCDCcJAgwgCQIOoBIEEUI0KCCMNBgggDQIKoB4AEUYwICSIMBwkiDAAJoh4AEkQxIiSIMBwkiDAAJIh6AEgQxYiQIMJwkCDCAJAg6gEgQRQjQoIIw0GCCANAgqgHgARRjGgtEsRa+00URd8aY95TrPWFXcOXeOql5pz7YTAYfB2yh8G/5TbvPO3v7+/FcXwQRdGBMeaBMeZLY8y1kAe3am1MsVZVMOz+a5EgMySK0zS9bYxhwxSmuWOM2Qgr6/zVYZD5tZLYct0NckZTa22TiO4WpiEiTpquMSYWAoBzEAnh52yzdgY5T5fd3d1rW1tbPSIqUoZfEyIKPj1Egsw5UoU2g0EuED5Jkq1ms5lNzfKU4ddPfXOCQXwr6rceDLKAnp1O5yYRHfKFAOfcgzxxPlqgxJlNYZBV1Au/LwyyosZpmn6SXzErpmd8TvP+vGVhkHmVktkOBgmge5qmXzjnTqZnzrn7RHT9vKZgkAAAPJaEQTyKOaNUZK3t5FOyImnuElEbBrkaAMu2AoMsq5yH/dI05enYQb/f/85DuZMSaZo6n/XqXGudPkmvM8eTY+/1ehuTyeQIYvhRAAniR0c1VWAQvyhgEL96ileDQfwigEH86ileDQbxiwAG8auneDUYxC8CGMSvniqq7e3tfdxsNh/yFTLn3MP8VpltFZ2rWCdgkIoBW7K75WdlCuPc489hlqxXm91gkNqgPnOgjW63eyeO48wwxhh+FbvtXysGGEQrGYF+7ezsbG5vb2c3YUZRVBjnc4GuqGkSBlGDQmdHrLUfGGMOS4bhtPlQZ2/99woG8a/p2lfsdrufEVGWMGwc5xw/bHbuzZhVFwMGqTpBHf0na60tzmV40Qzn3B0iauro3vK9gEGW1w57zlCAn/03xtzjk38+p+HEcc7tX8VjzD7BwCA+1UStmQpYa3kalhkmf5SZp2n8wJnaHxhELZp6dCxJklutVuur0qVmThu+MKDiBwZRgQGdKCtQeiIzuxBARPeNMZsSKsEgEqqjzUUVyBYA5NtmiqQhotQY01i00KLbwyCLKobtVSiQJEmr3W73ivvNcuN4X8sMBlGBG53woQCvZdZutw/5QkC+aAZfEPj5KrVhkFXUw77qFVj1zmYYRD1idNCzAgvd2QyDeFYf5SqpwIV3NsMgleSJTodWoLizOYqiW4PB4O8h2wu+QnrIzqM2FAitAAwSWmHUr7QCMEil8aHzoRWAQUIrjPqVVgAGqTQ+dD60AjBIaIVRv9IKwCCVxofOh1YABgmtMOpXWgEYpNL40PnQCsAgoRVG/UorAINUGh86H1oBGCS0wqhfaQVgkErjQ+dDKwCDhFYY9SutwH8BbvOSbigIv4EAAAAASUVORK5CYII=;" vertex="1" parent="1">
          <mxGeometry x="1922" y="1033" width="28" height="28" as="geometry"/>
        </mxCell>
        <mxCell id="mqcAec2xRXexYzDcIC-P-123" value="&lt;div class=&quot;gtx-body&quot; style=&quot;display: inline ; font-size: 18px ; margin: 5px auto ; padding: 5px 0px ; color: rgb(37 , 37 , 37) ; font-family: &amp;quot;roboto&amp;quot; , &amp;quot;arial&amp;quot; , sans-serif ; white-space: normal&quot;&gt;browser&lt;/div&gt;" style="rounded=1;whiteSpace=wrap;html=1;shadow=0;glass=0;comic=1;labelBackgroundColor=none;fontSize=14;opacity=80;align=center;fillColor=#d5e8d4;strokeColor=#82b366;horizontal=1;spacingBottom=70;fontStyle=1;gradientColor=#97d077;" vertex="1" parent="1">
          <mxGeometry x="1841" y="1471" width="130" height="410" as="geometry"/>
        </mxCell>
        <mxCell id="mqcAec2xRXexYzDcIC-P-124" value="&lt;div class=&quot;gtx-body&quot; style=&quot;display: inline ; font-size: 18px ; margin: 5px auto ; padding: 5px 0px ; color: rgb(37 , 37 , 37) ; font-family: &amp;quot;roboto&amp;quot; , &amp;quot;arial&amp;quot; , sans-serif ; white-space: normal&quot;&gt;browser&lt;/div&gt;" style="rounded=1;whiteSpace=wrap;html=1;shadow=0;glass=0;comic=1;labelBackgroundColor=none;fontSize=14;opacity=80;align=center;fillColor=#dae8fc;strokeColor=#6c8ebf;horizontal=1;spacingBottom=40;fontStyle=1;gradientColor=#7ea6e0;" vertex="1" parent="1">
          <mxGeometry x="1546" y="1512" width="80" height="320" as="geometry"/>
        </mxCell>
        <mxCell id="mqcAec2xRXexYzDcIC-P-125" style="edgeStyle=orthogonalEdgeStyle;curved=1;rounded=0;orthogonalLoop=1;jettySize=auto;html=1;entryX=0;entryY=0.5;entryDx=0;entryDy=0;shadow=0;startArrow=none;startFill=0;endArrow=classic;endFill=1;fontSize=14;fontColor=#000000;" edge="1" parent="1" source="mqcAec2xRXexYzDcIC-P-126" target="mqcAec2xRXexYzDcIC-P-124">
          <mxGeometry relative="1" as="geometry"/>
        </mxCell>
        <mxCell id="mqcAec2xRXexYzDcIC-P-126" value="Actor" style="shape=umlActor;verticalLabelPosition=bottom;labelBackgroundColor=#ffffff;verticalAlign=top;html=1;outlineConnect=0;rounded=1;shadow=0;glass=0;comic=1;fontSize=14;opacity=80;align=right;fillColor=#bac8d3;strokeColor=#23445d;" vertex="1" parent="1">
          <mxGeometry x="1440" y="1645.5" width="30" height="60" as="geometry"/>
        </mxCell>
        <mxCell id="mqcAec2xRXexYzDcIC-P-128" value="&lt;div class=&quot;gtx-body&quot; style=&quot;display: inline; font-size: 12px; margin: 5px auto; padding: 5px 0px; color: rgb(37, 37, 37); font-family: roboto, arial, sans-serif; white-space: normal;&quot;&gt;Gitlab&lt;/div&gt;" style="rounded=1;whiteSpace=wrap;html=1;shadow=0;glass=0;comic=1;labelBackgroundColor=none;fontSize=12;opacity=50;align=center;fillColor=#d0cee2;strokeColor=#56517e;" vertex="1" parent="1">
          <mxGeometry x="1550" y="1527.5" width="70" height="37" as="geometry"/>
        </mxCell>
        <mxCell id="mqcAec2xRXexYzDcIC-P-130" value="&lt;div class=&quot;gtx-body&quot; style=&quot;display: inline; font-size: 12px; margin: 5px auto; padding: 5px 0px; color: rgb(37, 37, 37); font-family: roboto, arial, sans-serif; white-space: normal;&quot;&gt;Jenkins&lt;/div&gt;" style="rounded=1;whiteSpace=wrap;html=1;shadow=0;glass=0;comic=1;labelBackgroundColor=none;fontSize=12;opacity=50;align=center;fillColor=#d0cee2;strokeColor=#56517e;" vertex="1" parent="1">
          <mxGeometry x="1550" y="1581" width="70" height="37" as="geometry"/>
        </mxCell>
        <mxCell id="mqcAec2xRXexYzDcIC-P-132" value="&lt;font color=&quot;#252525&quot; face=&quot;roboto, arial, sans-serif&quot; style=&quot;font-size: 12px;&quot;&gt;&lt;span style=&quot;font-size: 12px;&quot;&gt;Rancher&lt;/span&gt;&lt;/font&gt;" style="rounded=1;whiteSpace=wrap;html=1;shadow=0;glass=0;comic=1;labelBackgroundColor=none;fontSize=12;opacity=50;align=center;fillColor=#d0cee2;strokeColor=#56517e;" vertex="1" parent="1">
          <mxGeometry x="1550" y="1677.5" width="70" height="37" as="geometry"/>
        </mxCell>
        <mxCell id="mqcAec2xRXexYzDcIC-P-134" value="&lt;font color=&quot;#252525&quot; face=&quot;roboto, arial, sans-serif&quot; style=&quot;font-size: 12px;&quot;&gt;&lt;span style=&quot;font-size: 12px;&quot;&gt;App1&lt;/span&gt;&lt;/font&gt;" style="rounded=1;whiteSpace=wrap;html=1;shadow=0;glass=0;comic=1;labelBackgroundColor=none;fontSize=12;opacity=50;align=center;fillColor=#d0cee2;strokeColor=#56517e;" vertex="1" parent="1">
          <mxGeometry x="1550" y="1732" width="70" height="37" as="geometry"/>
        </mxCell>
        <mxCell id="mqcAec2xRXexYzDcIC-P-136" value="&lt;font color=&quot;#252525&quot; face=&quot;roboto, arial, sans-serif&quot; style=&quot;font-size: 12px;&quot;&gt;&lt;span style=&quot;font-size: 12px;&quot;&gt;App2&lt;/span&gt;&lt;/font&gt;" style="rounded=1;whiteSpace=wrap;html=1;shadow=0;glass=0;comic=1;labelBackgroundColor=none;fontSize=12;opacity=50;align=center;fillColor=#d0cee2;strokeColor=#56517e;" vertex="1" parent="1">
          <mxGeometry x="1550" y="1786.5" width="70" height="37" as="geometry"/>
        </mxCell>
        <mxCell id="mqcAec2xRXexYzDcIC-P-137" value="&lt;div class=&quot;gtx-body&quot; style=&quot;display: inline; font-size: 12px; margin: 5px auto; padding: 5px 0px; color: rgb(37, 37, 37); font-family: roboto, arial, sans-serif; white-space: normal;&quot;&gt;Gitlab&lt;/div&gt;" style="rounded=1;whiteSpace=wrap;html=1;shadow=0;glass=0;comic=1;labelBackgroundColor=none;fontSize=12;opacity=50;align=center;fillColor=#d0cee2;strokeColor=#56517e;" vertex="1" parent="1">
          <mxGeometry x="1861" y="1482.5" width="90" height="57" as="geometry"/>
        </mxCell>
        <mxCell id="mqcAec2xRXexYzDcIC-P-138" value="&lt;div class=&quot;gtx-body&quot; style=&quot;display: inline; font-size: 12px; margin: 5px auto; padding: 5px 0px; color: rgb(37, 37, 37); font-family: roboto, arial, sans-serif; white-space: normal;&quot;&gt;Jenkins&lt;/div&gt;" style="rounded=1;whiteSpace=wrap;html=1;shadow=0;glass=0;comic=1;labelBackgroundColor=none;fontSize=12;opacity=50;align=center;fillColor=#d0cee2;strokeColor=#56517e;" vertex="1" parent="1">
          <mxGeometry x="1861" y="1552.5" width="90" height="57" as="geometry"/>
        </mxCell>
        <mxCell id="mqcAec2xRXexYzDcIC-P-139" value="&lt;font color=&quot;#252525&quot; face=&quot;roboto, arial, sans-serif&quot; style=&quot;font-size: 12px;&quot;&gt;&lt;span style=&quot;font-size: 12px;&quot;&gt;Rancher&lt;/span&gt;&lt;/font&gt;" style="rounded=1;whiteSpace=wrap;html=1;shadow=0;glass=0;comic=1;labelBackgroundColor=none;fontSize=12;opacity=50;align=center;fillColor=#d0cee2;strokeColor=#56517e;" vertex="1" parent="1">
          <mxGeometry x="1861" y="1674.5" width="90" height="57" as="geometry"/>
        </mxCell>
        <mxCell id="mqcAec2xRXexYzDcIC-P-140" value="&lt;font color=&quot;#252525&quot; face=&quot;roboto, arial, sans-serif&quot; style=&quot;font-size: 12px;&quot;&gt;&lt;span style=&quot;font-size: 12px;&quot;&gt;App1&lt;/span&gt;&lt;/font&gt;" style="rounded=1;whiteSpace=wrap;html=1;shadow=0;glass=0;comic=1;labelBackgroundColor=none;fontSize=12;opacity=50;align=center;fillColor=#d0cee2;strokeColor=#56517e;" vertex="1" parent="1">
          <mxGeometry x="1861" y="1745.5" width="90" height="57" as="geometry"/>
        </mxCell>
        <mxCell id="mqcAec2xRXexYzDcIC-P-141" value="&lt;font color=&quot;#252525&quot; face=&quot;roboto, arial, sans-serif&quot; style=&quot;font-size: 12px;&quot;&gt;&lt;span style=&quot;font-size: 12px;&quot;&gt;App2&lt;/span&gt;&lt;/font&gt;" style="rounded=1;whiteSpace=wrap;html=1;shadow=0;glass=0;comic=1;labelBackgroundColor=none;fontSize=12;opacity=50;align=center;fillColor=#d0cee2;strokeColor=#56517e;" vertex="1" parent="1">
          <mxGeometry x="1861" y="1816.5" width="90" height="57" as="geometry"/>
        </mxCell>
        <mxCell id="mqcAec2xRXexYzDcIC-P-142" value="" style="shape=image;html=1;verticalAlign=top;verticalLabelPosition=bottom;labelBackgroundColor=#ffffff;imageAspect=0;aspect=fixed;image=https://cdn0.iconfinder.com/data/icons/picons-social/57/66-wechat-128.png;rounded=1;shadow=0;glass=0;comic=1;fontSize=12;fontColor=#000000;opacity=50;align=center;" vertex="1" parent="1">
          <mxGeometry x="1921" y="1844.5" width="29" height="29" as="geometry"/>
        </mxCell>
        <mxCell id="mqcAec2xRXexYzDcIC-P-143" value="" style="shape=image;html=1;verticalAlign=top;verticalLabelPosition=bottom;labelBackgroundColor=#ffffff;imageAspect=0;aspect=fixed;image=https://cdn0.iconfinder.com/data/icons/picons-social/57/66-wechat-128.png;rounded=1;shadow=0;glass=0;comic=1;fontSize=12;fontColor=#000000;opacity=50;align=center;" vertex="1" parent="1">
          <mxGeometry x="1920" y="1775.5" width="29" height="29" as="geometry"/>
        </mxCell>
        <mxCell id="mqcAec2xRXexYzDcIC-P-144" value="" style="shape=image;html=1;verticalAlign=top;verticalLabelPosition=bottom;labelBackgroundColor=#ffffff;imageAspect=0;aspect=fixed;image=https://cdn0.iconfinder.com/data/icons/picons-social/57/66-wechat-128.png;rounded=1;shadow=0;glass=0;comic=1;fontSize=12;fontColor=#000000;opacity=50;align=center;" vertex="1" parent="1">
          <mxGeometry x="1921" y="1704.5" width="29" height="29" as="geometry"/>
        </mxCell>
        <mxCell id="mqcAec2xRXexYzDcIC-P-145" value="" style="shape=image;verticalLabelPosition=bottom;labelBackgroundColor=#ffffff;verticalAlign=top;aspect=fixed;imageAspect=0;image=data:image/png,iVBORw0KGgoAAAANSUhEUgAAAMgAAADICAYAAACtWK6eAAANZElEQVR4Xu2d324bxxXG5+xSJK3YUhPDCaooCYJsJXK8tR3TsgK0QIHmLQoUyCP0su192xcIECDvUPQFivSifQKDJGDAMHzl+8Q2acoWpzjbXXmrPxT/zOic5X4CDBrS7pnZ7zcfv9nl7pAMfqAAFLhQAYI2UAAKXKwADILRAQVmKACDYHhAARgEYwAKLKcAEmQ53bBXTRSAQWoCGoe5nAIwyHK6Ya+aKACD1AQ0DnM5BWCQ5XTDXjVRAAapCWgc5nIKwCDL6Ya9aqIADFIT0DjM5RSAQZbTDXvVRAEYpCag1+kwd3d3r924ceMgjuOb/X7/HyGPDQYJqS5q+1Cg0e127xDRQRRFD40xB8YYa4yJnXP/GgwGv/XRyEU1YJCQ6qL2ogpQp9P5BRshiiI2wkPn3D0iap9XCAZZVF5sXykF9vb2Po7jmKdKRTI8MMb8bN6DgEHmVQrbqVcgSZKtdrt9yFMk51xmCCLaWaXjMMgq6mFfMQWSJGk1Go37jUYjM0JuiISIvE7pYRAxxGh4AQWiNE3TIhX4vIGIUmNMY4EaS20KgywlG3YKqUCapl8457IT6HyadN8YsxmyzYtqwyASqqPNEwWSJLnVarW+yi+tFob4QItEMIgWEjXoh7X2On/WUEoGNsQnmg8dBtFMp8J9s9Y2jTH8+cKJIYwxHd8n0aElgkFCK1yP+mSt7eYnz3xplT9840+m2SSV/oFBKo1PpvPdbvczNgGfN/An0s65HhFdl+lN2FZhkLD6Vr66tZZPmA9L9yjxlOnDyh/YnAcAg8wpVB0229nZ2dze3n5w6qa9z+tw7LjMW2fK5x97dgdr6R4lnjLxeUQMqd4pgASpx2ig/f39Pb5pr5gqzbqDtR6SzHeUMMh8OlVqqyRJdtvtNp8rZPcoERHfwbpdqYNQ0lkYRAkIX93o9Xobk8nkyFe9uteBQdZsBMAgfoHCIH71FK8Gg/hFAIP41VO8GgziFwEM4ldP8WowiF8EMIhfPReq1u127/MVpuFw+P1CO16yMT9b5LNenWvBIFdDP7uZL7+zlS+58iXYu7yShnPODQaDyFc3kCC+lPxfHRjEr55ZteKJuPzzB/4sgpPi3Jv5YJAAADyWhEFWFLP0oVyRDPz6/rxlYZB5lZLZDgZZQPdOp3OTiA45GXi6lE+ZPlqgxJlNYZBV1Au/Lwxygca8xlKz2cxu1yimSkT0qW8kMIhvRf3Wg0GMMbxQ8dbWFj/0w4Yopkre11g6Dx0M4ndA+65WO4Pws9JEdLecDJK3ecMgvoe033rrbpA4TdPb+WXVLBmcc7/U9Kw0DOJ3QPuutk4GOXnmgadJ+crdXxpjrvkWzWc9GMSnmv5rrYVBrLXfRFH0rTHmPf8Sha/Y7/e9rieLT9L9MXPO/TAYDL72V/FsJa/wz+tomqZ/Nsb8JeRBhKqNBAmlrJ+6a5EgMMi7wYBbTfwYo6gCg/jVc+FqSJCFJbvSHWCQK5X7bGMwiDCAS5qHQYT5wCDCAGAQ9QBwu7tiREgQYThIEGEASBD1AJAgihEhQYThIEGEASBB1ANAgihGhAQRhoMEEQaABFEPAAmiGBESRBgOEkQYABJEPQAkiGJESBBhOEgQYQBIEPUAkCCKESFBhOEgQYQBIEHUA0CCKEaEBBGGgwQRBoAEUQ8ACaIYERJEGA4SRBgAEkQ9ACSIYkRIEGE4SBBhAEgQ9QCQIIoRIUGE4SBBhAEgQdQDQIIoRoQEEYaDBBEGgARRDwAJohgREkQYDhJEGAASRD0AJIhiREgQYThIEGEASBD1AJAgihEhQYThIEGEASBB1ANAgihGhAQRhoMEEQaABFEPAAmiGNFaJIi19k9RFP1Vsc4zu4Yv8VRDbuScGxljRkSUvU6n038Ph8M/hOwhvsRzhrqYYs0eeqwPEb3mgVsM2vIgLv6f/31cHtz8O/4XRVH2yv+m0+kojuPs9fj4eNRqtUYvXrwYP3v27HVIE8yqDYOsqUGcc5MZg3bMf7toMJcHbfn/cRyPeeC+fft29PLly9Hz58950DupwXsV7QY3iLX2j1EU/e0qDiZEGyGmWM65n/J303FpkL5yzp15lzXGvCzepYttedBOp1Pe91UURVkNHrgbGxujN2/ejB4/fvwihBZ1rBncIPga6DoOq/U55qoa5A2/A/M7bj5VKN55s3dTIuLXM7/LT+zGxbsuvwvnc94xz3v59/zaaDTGr1+/Hj958uSVMeZ4fXDjSBZVILhBrLW/I6Lf86AtDepsIOcnaTwoedBmA778u9ODFtOHRfFi+1UVCG6QVTuI/aGApAIwiKT6aFu9AjCIekTooKQCMIik+mhbvQIwiHpE6KCkAjCIpPpoW70CMIh6ROigpAIwiKT6aFu9AjCIekTooKQCMIik+mhbvQIwiHpE6KCkAjCIpPpoW70CMIh6ROigpAIwiKT6aFu9AjCIekTooKQCMIik+mhbvQIwiHpE6KCkAjCIpPpoW70CwQ1irf01Ef0qf048e6y2ePabl5Hhx2r5kdtGo8HLyYwnk8no6dOnP6pXDh2shQLBDbLCqibHpQUYeCW9kwUaCrOVf3dqcbJs0YbS8+28INmJGYv1ncbj8Xhzc3M0HA6PakEbB7mwAsENUqGlR8vrUmUGI6Kf+v3+bxZWFTusjQIwyCUofS8cd/v27X+ek4a84gsvMTQ5tdJLseJLlob5MkVjnoqWlibiRejwE0iB4AZZYYoV6JDnL1uhtXnf5Il3ej0wTsEiDU8vu3Tyt/JaYvn54cl54vHxMa8dNj46Oho3m83xcDjk6e50fhWrvSUMMoNfhQxypaPQOXdUNl7JnNm5YvGvtE2x5tn/GfbUGmiZKdmQvIQqG7Ldbo8fPXrE9cQMGdwgFToHOXeQ+Z5ipWm61os9B3Tqj+WUZPNNp9P/4OsPAip+WWkkyGUKyf59Lb5AB+cg7wZRr9fbmEwmuKTsyVcwiCchly2DBFlWuavZDwa5Gp0vbAUGEQZwSfMwiDAfGEQYAAyiHgC+5VYxIiSIMBwkiDAAJIh6AEgQxYiQIMJwkCDCAJAg6gEgQRQjQoIIw0GCCANAgqgHgARRjAgJIgwHCSIMAAmiHgASRDEiJIgwHCSIMAAkiHoASBDFiJAgwnCQIMIAkCDqASBBFCNCggjDQYIIA0CCqAeABFGMCAkiDAcJIgwACaIeABJEMSIkiDAcJIgwACSIegBIEMWIkCDCcJAgwgCQIOoBIEEUI0KCCMNBgggDQIKoB4AEUYwICSIMBwkiDAAJoh4AEkQxIiSIMBwkiDAAJIh6AEgQxYiQIMJwkCDCAJAg6gEgQRQjQoIIw0GCCANAgqgHgARRjGgtEsRa+00URd8aY95TrPWFXcOXeOql5pz7YTAYfB2yh8G/5TbvPO3v7+/FcXwQRdGBMeaBMeZLY8y1kAe3am1MsVZVMOz+a5EgMySK0zS9bYxhwxSmuWOM2Qgr6/zVYZD5tZLYct0NckZTa22TiO4WpiEiTpquMSYWAoBzEAnh52yzdgY5T5fd3d1rW1tbPSIqUoZfEyIKPj1Egsw5UoU2g0EuED5Jkq1ms5lNzfKU4ddPfXOCQXwr6rceDLKAnp1O5yYRHfKFAOfcgzxxPlqgxJlNYZBV1Au/LwyyosZpmn6SXzErpmd8TvP+vGVhkHmVktkOBgmge5qmXzjnTqZnzrn7RHT9vKZgkAAAPJaEQTyKOaNUZK3t5FOyImnuElEbBrkaAMu2AoMsq5yH/dI05enYQb/f/85DuZMSaZo6n/XqXGudPkmvM8eTY+/1ehuTyeQIYvhRAAniR0c1VWAQvyhgEL96ileDQfwigEH86ileDQbxiwAG8auneDUYxC8CGMSvniqq7e3tfdxsNh/yFTLn3MP8VpltFZ2rWCdgkIoBW7K75WdlCuPc489hlqxXm91gkNqgPnOgjW63eyeO48wwxhh+FbvtXysGGEQrGYF+7ezsbG5vb2c3YUZRVBjnc4GuqGkSBlGDQmdHrLUfGGMOS4bhtPlQZ2/99woG8a/p2lfsdrufEVGWMGwc5xw/bHbuzZhVFwMGqTpBHf0na60tzmV40Qzn3B0iauro3vK9gEGW1w57zlCAn/03xtzjk38+p+HEcc7tX8VjzD7BwCA+1UStmQpYa3kalhkmf5SZp2n8wJnaHxhELZp6dCxJklutVuur0qVmThu+MKDiBwZRgQGdKCtQeiIzuxBARPeNMZsSKsEgEqqjzUUVyBYA5NtmiqQhotQY01i00KLbwyCLKobtVSiQJEmr3W73ivvNcuN4X8sMBlGBG53woQCvZdZutw/5QkC+aAZfEPj5KrVhkFXUw77qFVj1zmYYRD1idNCzAgvd2QyDeFYf5SqpwIV3NsMgleSJTodWoLizOYqiW4PB4O8h2wu+QnrIzqM2FAitAAwSWmHUr7QCMEil8aHzoRWAQUIrjPqVVgAGqTQ+dD60AjBIaIVRv9IKwCCVxofOh1YABgmtMOpXWgEYpNL40PnQCsAgoRVG/UorAINUGh86H1oBGCS0wqhfaQVgkErjQ+dDKwCDhFYY9SutwH8BbvOSbigIv4EAAAAASUVORK5CYII=;" vertex="1" parent="1">
          <mxGeometry x="1921" y="1511.5" width="28" height="28" as="geometry"/>
        </mxCell>
        <mxCell id="mqcAec2xRXexYzDcIC-P-146" value="" style="shape=image;verticalLabelPosition=bottom;labelBackgroundColor=#ffffff;verticalAlign=top;aspect=fixed;imageAspect=0;image=data:image/png,iVBORw0KGgoAAAANSUhEUgAAAMgAAADICAYAAACtWK6eAAANZElEQVR4Xu2d324bxxXG5+xSJK3YUhPDCaooCYJsJXK8tR3TsgK0QIHmLQoUyCP0su192xcIECDvUPQFivSifQKDJGDAMHzl+8Q2acoWpzjbXXmrPxT/zOic5X4CDBrS7pnZ7zcfv9nl7pAMfqAAFLhQAYI2UAAKXKwADILRAQVmKACDYHhAARgEYwAKLKcAEmQ53bBXTRSAQWoCGoe5nAIwyHK6Ya+aKACD1AQ0DnM5BWCQ5XTDXjVRAAapCWgc5nIKwCDL6Ya9aqIADFIT0DjM5RSAQZbTDXvVRAEYpCag1+kwd3d3r924ceMgjuOb/X7/HyGPDQYJqS5q+1Cg0e127xDRQRRFD40xB8YYa4yJnXP/GgwGv/XRyEU1YJCQ6qL2ogpQp9P5BRshiiI2wkPn3D0iap9XCAZZVF5sXykF9vb2Po7jmKdKRTI8MMb8bN6DgEHmVQrbqVcgSZKtdrt9yFMk51xmCCLaWaXjMMgq6mFfMQWSJGk1Go37jUYjM0JuiISIvE7pYRAxxGh4AQWiNE3TIhX4vIGIUmNMY4EaS20KgywlG3YKqUCapl8457IT6HyadN8YsxmyzYtqwyASqqPNEwWSJLnVarW+yi+tFob4QItEMIgWEjXoh7X2On/WUEoGNsQnmg8dBtFMp8J9s9Y2jTH8+cKJIYwxHd8n0aElgkFCK1yP+mSt7eYnz3xplT9840+m2SSV/oFBKo1PpvPdbvczNgGfN/An0s65HhFdl+lN2FZhkLD6Vr66tZZPmA9L9yjxlOnDyh/YnAcAg8wpVB0229nZ2dze3n5w6qa9z+tw7LjMW2fK5x97dgdr6R4lnjLxeUQMqd4pgASpx2ig/f39Pb5pr5gqzbqDtR6SzHeUMMh8OlVqqyRJdtvtNp8rZPcoERHfwbpdqYNQ0lkYRAkIX93o9Xobk8nkyFe9uteBQdZsBMAgfoHCIH71FK8Gg/hFAIP41VO8GgziFwEM4ldP8WowiF8EMIhfPReq1u127/MVpuFw+P1CO16yMT9b5LNenWvBIFdDP7uZL7+zlS+58iXYu7yShnPODQaDyFc3kCC+lPxfHRjEr55ZteKJuPzzB/4sgpPi3Jv5YJAAADyWhEFWFLP0oVyRDPz6/rxlYZB5lZLZDgZZQPdOp3OTiA45GXi6lE+ZPlqgxJlNYZBV1Au/Lwxygca8xlKz2cxu1yimSkT0qW8kMIhvRf3Wg0GMMbxQ8dbWFj/0w4Yopkre11g6Dx0M4ndA+65WO4Pws9JEdLecDJK3ecMgvoe033rrbpA4TdPb+WXVLBmcc7/U9Kw0DOJ3QPuutk4GOXnmgadJ+crdXxpjrvkWzWc9GMSnmv5rrYVBrLXfRFH0rTHmPf8Sha/Y7/e9rieLT9L9MXPO/TAYDL72V/FsJa/wz+tomqZ/Nsb8JeRBhKqNBAmlrJ+6a5EgMMi7wYBbTfwYo6gCg/jVc+FqSJCFJbvSHWCQK5X7bGMwiDCAS5qHQYT5wCDCAGAQ9QBwu7tiREgQYThIEGEASBD1AJAgihEhQYThIEGEASBB1ANAgihGhAQRhoMEEQaABFEPAAmiGBESRBgOEkQYABJEPQAkiGJESBBhOEgQYQBIEPUAkCCKESFBhOEgQYQBIEHUA0CCKEaEBBGGgwQRBoAEUQ8ACaIYERJEGA4SRBgAEkQ9ACSIYkRIEGE4SBBhAEgQ9QCQIIoRIUGE4SBBhAEgQdQDQIIoRoQEEYaDBBEGgARRDwAJohgREkQYDhJEGAASRD0AJIhiREgQYThIEGEASBD1AJAgihEhQYThIEGEASBB1ANAgihGhAQRhoMEEQaABFEPAAmiGNFaJIi19k9RFP1Vsc4zu4Yv8VRDbuScGxljRkSUvU6n038Ph8M/hOwhvsRzhrqYYs0eeqwPEb3mgVsM2vIgLv6f/31cHtz8O/4XRVH2yv+m0+kojuPs9fj4eNRqtUYvXrwYP3v27HVIE8yqDYOsqUGcc5MZg3bMf7toMJcHbfn/cRyPeeC+fft29PLly9Hz58950DupwXsV7QY3iLX2j1EU/e0qDiZEGyGmWM65n/J303FpkL5yzp15lzXGvCzepYttedBOp1Pe91UURVkNHrgbGxujN2/ejB4/fvwihBZ1rBncIPga6DoOq/U55qoa5A2/A/M7bj5VKN55s3dTIuLXM7/LT+zGxbsuvwvnc94xz3v59/zaaDTGr1+/Hj958uSVMeZ4fXDjSBZVILhBrLW/I6Lf86AtDepsIOcnaTwoedBmA778u9ODFtOHRfFi+1UVCG6QVTuI/aGApAIwiKT6aFu9AjCIekTooKQCMIik+mhbvQIwiHpE6KCkAjCIpPpoW70CMIh6ROigpAIwiKT6aFu9AjCIekTooKQCMIik+mhbvQIwiHpE6KCkAjCIpPpoW70CMIh6ROigpAIwiKT6aFu9AjCIekTooKQCMIik+mhbvQIwiHpE6KCkAjCIpPpoW70CwQ1irf01Ef0qf048e6y2ePabl5Hhx2r5kdtGo8HLyYwnk8no6dOnP6pXDh2shQLBDbLCqibHpQUYeCW9kwUaCrOVf3dqcbJs0YbS8+28INmJGYv1ncbj8Xhzc3M0HA6PakEbB7mwAsENUqGlR8vrUmUGI6Kf+v3+bxZWFTusjQIwyCUofS8cd/v27X+ek4a84gsvMTQ5tdJLseJLlob5MkVjnoqWlibiRejwE0iB4AZZYYoV6JDnL1uhtXnf5Il3ej0wTsEiDU8vu3Tyt/JaYvn54cl54vHxMa8dNj46Oho3m83xcDjk6e50fhWrvSUMMoNfhQxypaPQOXdUNl7JnNm5YvGvtE2x5tn/GfbUGmiZKdmQvIQqG7Ldbo8fPXrE9cQMGdwgFToHOXeQ+Z5ipWm61os9B3Tqj+WUZPNNp9P/4OsPAip+WWkkyGUKyf59Lb5AB+cg7wZRr9fbmEwmuKTsyVcwiCchly2DBFlWuavZDwa5Gp0vbAUGEQZwSfMwiDAfGEQYAAyiHgC+5VYxIiSIMBwkiDAAJIh6AEgQxYiQIMJwkCDCAJAg6gEgQRQjQoIIw0GCCANAgqgHgARRjAgJIgwHCSIMAAmiHgASRDEiJIgwHCSIMAAkiHoASBDFiJAgwnCQIMIAkCDqASBBFCNCggjDQYIIA0CCqAeABFGMCAkiDAcJIgwACaIeABJEMSIkiDAcJIgwACSIegBIEMWIkCDCcJAgwgCQIOoBIEEUI0KCCMNBgggDQIKoB4AEUYwICSIMBwkiDAAJoh4AEkQxIiSIMBwkiDAAJIh6AEgQxYiQIMJwkCDCAJAg6gEgQRQjQoIIw0GCCANAgqgHgARRjGgtEsRa+00URd8aY95TrPWFXcOXeOql5pz7YTAYfB2yh8G/5TbvPO3v7+/FcXwQRdGBMeaBMeZLY8y1kAe3am1MsVZVMOz+a5EgMySK0zS9bYxhwxSmuWOM2Qgr6/zVYZD5tZLYct0NckZTa22TiO4WpiEiTpquMSYWAoBzEAnh52yzdgY5T5fd3d1rW1tbPSIqUoZfEyIKPj1Egsw5UoU2g0EuED5Jkq1ms5lNzfKU4ddPfXOCQXwr6rceDLKAnp1O5yYRHfKFAOfcgzxxPlqgxJlNYZBV1Au/LwyyosZpmn6SXzErpmd8TvP+vGVhkHmVktkOBgmge5qmXzjnTqZnzrn7RHT9vKZgkAAAPJaEQTyKOaNUZK3t5FOyImnuElEbBrkaAMu2AoMsq5yH/dI05enYQb/f/85DuZMSaZo6n/XqXGudPkmvM8eTY+/1ehuTyeQIYvhRAAniR0c1VWAQvyhgEL96ileDQfwigEH86ileDQbxiwAG8auneDUYxC8CGMSvniqq7e3tfdxsNh/yFTLn3MP8VpltFZ2rWCdgkIoBW7K75WdlCuPc489hlqxXm91gkNqgPnOgjW63eyeO48wwxhh+FbvtXysGGEQrGYF+7ezsbG5vb2c3YUZRVBjnc4GuqGkSBlGDQmdHrLUfGGMOS4bhtPlQZ2/99woG8a/p2lfsdrufEVGWMGwc5xw/bHbuzZhVFwMGqTpBHf0na60tzmV40Qzn3B0iauro3vK9gEGW1w57zlCAn/03xtzjk38+p+HEcc7tX8VjzD7BwCA+1UStmQpYa3kalhkmf5SZp2n8wJnaHxhELZp6dCxJklutVuur0qVmThu+MKDiBwZRgQGdKCtQeiIzuxBARPeNMZsSKsEgEqqjzUUVyBYA5NtmiqQhotQY01i00KLbwyCLKobtVSiQJEmr3W73ivvNcuN4X8sMBlGBG53woQCvZdZutw/5QkC+aAZfEPj5KrVhkFXUw77qFVj1zmYYRD1idNCzAgvd2QyDeFYf5SqpwIV3NsMgleSJTodWoLizOYqiW4PB4O8h2wu+QnrIzqM2FAitAAwSWmHUr7QCMEil8aHzoRWAQUIrjPqVVgAGqTQ+dD60AjBIaIVRv9IKwCCVxofOh1YABgmtMOpXWgEYpNL40PnQCsAgoRVG/UorAINUGh86H1oBGCS0wqhfaQVgkErjQ+dDKwCDhFYY9SutwH8BbvOSbigIv4EAAAAASUVORK5CYII=;" vertex="1" parent="1">
          <mxGeometry x="1922" y="1582.5" width="28" height="28" as="geometry"/>
        </mxCell>
        <mxCell id="mqcAec2xRXexYzDcIC-P-147" value="&lt;b&gt;raging-uaa&lt;/b&gt;" style="rounded=1;whiteSpace=wrap;html=1;shadow=0;glass=0;comic=1;labelBackgroundColor=none;fontSize=12;opacity=50;align=center;verticalAlign=top;fillColor=#008a00;strokeColor=#005700;fontColor=#ffffff;" vertex="1" parent="1">
          <mxGeometry x="1700" y="1554" width="80" height="244" as="geometry"/>
        </mxCell>
        <mxCell id="mqcAec2xRXexYzDcIC-P-150" value="" style="shape=image;verticalLabelPosition=bottom;labelBackgroundColor=#ffffff;verticalAlign=top;aspect=fixed;imageAspect=0;image=data:image/png,iVBORw0KGgoAAAANSUhEUgAAAMgAAADICAYAAACtWK6eAAANZElEQVR4Xu2d324bxxXG5+xSJK3YUhPDCaooCYJsJXK8tR3TsgK0QIHmLQoUyCP0su192xcIECDvUPQFivSifQKDJGDAMHzl+8Q2acoWpzjbXXmrPxT/zOic5X4CDBrS7pnZ7zcfv9nl7pAMfqAAFLhQAYI2UAAKXKwADILRAQVmKACDYHhAARgEYwAKLKcAEmQ53bBXTRSAQWoCGoe5nAIwyHK6Ya+aKACD1AQ0DnM5BWCQ5XTDXjVRAAapCWgc5nIKwCDL6Ya9aqIADFIT0DjM5RSAQZbTDXvVRAEYpCag1+kwd3d3r924ceMgjuOb/X7/HyGPDQYJqS5q+1Cg0e127xDRQRRFD40xB8YYa4yJnXP/GgwGv/XRyEU1YJCQ6qL2ogpQp9P5BRshiiI2wkPn3D0iap9XCAZZVF5sXykF9vb2Po7jmKdKRTI8MMb8bN6DgEHmVQrbqVcgSZKtdrt9yFMk51xmCCLaWaXjMMgq6mFfMQWSJGk1Go37jUYjM0JuiISIvE7pYRAxxGh4AQWiNE3TIhX4vIGIUmNMY4EaS20KgywlG3YKqUCapl8457IT6HyadN8YsxmyzYtqwyASqqPNEwWSJLnVarW+yi+tFob4QItEMIgWEjXoh7X2On/WUEoGNsQnmg8dBtFMp8J9s9Y2jTH8+cKJIYwxHd8n0aElgkFCK1yP+mSt7eYnz3xplT9840+m2SSV/oFBKo1PpvPdbvczNgGfN/An0s65HhFdl+lN2FZhkLD6Vr66tZZPmA9L9yjxlOnDyh/YnAcAg8wpVB0229nZ2dze3n5w6qa9z+tw7LjMW2fK5x97dgdr6R4lnjLxeUQMqd4pgASpx2ig/f39Pb5pr5gqzbqDtR6SzHeUMMh8OlVqqyRJdtvtNp8rZPcoERHfwbpdqYNQ0lkYRAkIX93o9Xobk8nkyFe9uteBQdZsBMAgfoHCIH71FK8Gg/hFAIP41VO8GgziFwEM4ldP8WowiF8EMIhfPReq1u127/MVpuFw+P1CO16yMT9b5LNenWvBIFdDP7uZL7+zlS+58iXYu7yShnPODQaDyFc3kCC+lPxfHRjEr55ZteKJuPzzB/4sgpPi3Jv5YJAAADyWhEFWFLP0oVyRDPz6/rxlYZB5lZLZDgZZQPdOp3OTiA45GXi6lE+ZPlqgxJlNYZBV1Au/Lwxygca8xlKz2cxu1yimSkT0qW8kMIhvRf3Wg0GMMbxQ8dbWFj/0w4Yopkre11g6Dx0M4ndA+65WO4Pws9JEdLecDJK3ecMgvoe033rrbpA4TdPb+WXVLBmcc7/U9Kw0DOJ3QPuutk4GOXnmgadJ+crdXxpjrvkWzWc9GMSnmv5rrYVBrLXfRFH0rTHmPf8Sha/Y7/e9rieLT9L9MXPO/TAYDL72V/FsJa/wz+tomqZ/Nsb8JeRBhKqNBAmlrJ+6a5EgMMi7wYBbTfwYo6gCg/jVc+FqSJCFJbvSHWCQK5X7bGMwiDCAS5qHQYT5wCDCAGAQ9QBwu7tiREgQYThIEGEASBD1AJAgihEhQYThIEGEASBB1ANAgihGhAQRhoMEEQaABFEPAAmiGBESRBgOEkQYABJEPQAkiGJESBBhOEgQYQBIEPUAkCCKESFBhOEgQYQBIEHUA0CCKEaEBBGGgwQRBoAEUQ8ACaIYERJEGA4SRBgAEkQ9ACSIYkRIEGE4SBBhAEgQ9QCQIIoRIUGE4SBBhAEgQdQDQIIoRoQEEYaDBBEGgARRDwAJohgREkQYDhJEGAASRD0AJIhiREgQYThIEGEASBD1AJAgihEhQYThIEGEASBB1ANAgihGhAQRhoMEEQaABFEPAAmiGNFaJIi19k9RFP1Vsc4zu4Yv8VRDbuScGxljRkSUvU6n038Ph8M/hOwhvsRzhrqYYs0eeqwPEb3mgVsM2vIgLv6f/31cHtz8O/4XRVH2yv+m0+kojuPs9fj4eNRqtUYvXrwYP3v27HVIE8yqDYOsqUGcc5MZg3bMf7toMJcHbfn/cRyPeeC+fft29PLly9Hz58950DupwXsV7QY3iLX2j1EU/e0qDiZEGyGmWM65n/J303FpkL5yzp15lzXGvCzepYttedBOp1Pe91UURVkNHrgbGxujN2/ejB4/fvwihBZ1rBncIPga6DoOq/U55qoa5A2/A/M7bj5VKN55s3dTIuLXM7/LT+zGxbsuvwvnc94xz3v59/zaaDTGr1+/Hj958uSVMeZ4fXDjSBZVILhBrLW/I6Lf86AtDepsIOcnaTwoedBmA778u9ODFtOHRfFi+1UVCG6QVTuI/aGApAIwiKT6aFu9AjCIekTooKQCMIik+mhbvQIwiHpE6KCkAjCIpPpoW70CMIh6ROigpAIwiKT6aFu9AjCIekTooKQCMIik+mhbvQIwiHpE6KCkAjCIpPpoW70CMIh6ROigpAIwiKT6aFu9AjCIekTooKQCMIik+mhbvQIwiHpE6KCkAjCIpPpoW70CwQ1irf01Ef0qf048e6y2ePabl5Hhx2r5kdtGo8HLyYwnk8no6dOnP6pXDh2shQLBDbLCqibHpQUYeCW9kwUaCrOVf3dqcbJs0YbS8+28INmJGYv1ncbj8Xhzc3M0HA6PakEbB7mwAsENUqGlR8vrUmUGI6Kf+v3+bxZWFTusjQIwyCUofS8cd/v27X+ek4a84gsvMTQ5tdJLseJLlob5MkVjnoqWlibiRejwE0iB4AZZYYoV6JDnL1uhtXnf5Il3ej0wTsEiDU8vu3Tyt/JaYvn54cl54vHxMa8dNj46Oho3m83xcDjk6e50fhWrvSUMMoNfhQxypaPQOXdUNl7JnNm5YvGvtE2x5tn/GfbUGmiZKdmQvIQqG7Ldbo8fPXrE9cQMGdwgFToHOXeQ+Z5ipWm61os9B3Tqj+WUZPNNp9P/4OsPAip+WWkkyGUKyf59Lb5AB+cg7wZRr9fbmEwmuKTsyVcwiCchly2DBFlWuavZDwa5Gp0vbAUGEQZwSfMwiDAfGEQYAAyiHgC+5VYxIiSIMBwkiDAAJIh6AEgQxYiQIMJwkCDCAJAg6gEgQRQjQoIIw0GCCANAgqgHgARRjAgJIgwHCSIMAAmiHgASRDEiJIgwHCSIMAAkiHoASBDFiJAgwnCQIMIAkCDqASBBFCNCggjDQYIIA0CCqAeABFGMCAkiDAcJIgwACaIeABJEMSIkiDAcJIgwACSIegBIEMWIkCDCcJAgwgCQIOoBIEEUI0KCCMNBgggDQIKoB4AEUYwICSIMBwkiDAAJoh4AEkQxIiSIMBwkiDAAJIh6AEgQxYiQIMJwkCDCAJAg6gEgQRQjQoIIw0GCCANAgqgHgARRjGgtEsRa+00URd8aY95TrPWFXcOXeOql5pz7YTAYfB2yh8G/5TbvPO3v7+/FcXwQRdGBMeaBMeZLY8y1kAe3am1MsVZVMOz+a5EgMySK0zS9bYxhwxSmuWOM2Qgr6/zVYZD5tZLYct0NckZTa22TiO4WpiEiTpquMSYWAoBzEAnh52yzdgY5T5fd3d1rW1tbPSIqUoZfEyIKPj1Egsw5UoU2g0EuED5Jkq1ms5lNzfKU4ddPfXOCQXwr6rceDLKAnp1O5yYRHfKFAOfcgzxxPlqgxJlNYZBV1Au/LwyyosZpmn6SXzErpmd8TvP+vGVhkHmVktkOBgmge5qmXzjnTqZnzrn7RHT9vKZgkAAAPJaEQTyKOaNUZK3t5FOyImnuElEbBrkaAMu2AoMsq5yH/dI05enYQb/f/85DuZMSaZo6n/XqXGudPkmvM8eTY+/1ehuTyeQIYvhRAAniR0c1VWAQvyhgEL96ileDQfwigEH86ileDQbxiwAG8auneDUYxC8CGMSvniqq7e3tfdxsNh/yFTLn3MP8VpltFZ2rWCdgkIoBW7K75WdlCuPc489hlqxXm91gkNqgPnOgjW63eyeO48wwxhh+FbvtXysGGEQrGYF+7ezsbG5vb2c3YUZRVBjnc4GuqGkSBlGDQmdHrLUfGGMOS4bhtPlQZ2/99woG8a/p2lfsdrufEVGWMGwc5xw/bHbuzZhVFwMGqTpBHf0na60tzmV40Qzn3B0iauro3vK9gEGW1w57zlCAn/03xtzjk38+p+HEcc7tX8VjzD7BwCA+1UStmQpYa3kalhkmf5SZp2n8wJnaHxhELZp6dCxJklutVuur0qVmThu+MKDiBwZRgQGdKCtQeiIzuxBARPeNMZsSKsEgEqqjzUUVyBYA5NtmiqQhotQY01i00KLbwyCLKobtVSiQJEmr3W73ivvNcuN4X8sMBlGBG53woQCvZdZutw/5QkC+aAZfEPj5KrVhkFXUw77qFVj1zmYYRD1idNCzAgvd2QyDeFYf5SqpwIV3NsMgleSJTodWoLizOYqiW4PB4O8h2wu+QnrIzqM2FAitAAwSWmHUr7QCMEil8aHzoRWAQUIrjPqVVgAGqTQ+dD60AjBIaIVRv9IKwCCVxofOh1YABgmtMOpXWgEYpNL40PnQCsAgoRVG/UorAINUGh86H1oBGCS0wqhfaQVgkErjQ+dDKwCDhFYY9SutwH8BbvOSbigIv4EAAAAASUVORK5CYII=;" vertex="1" parent="1">
          <mxGeometry x="1720" y="1621.5" width="41" height="41" as="geometry"/>
        </mxCell>
        <mxCell id="mqcAec2xRXexYzDcIC-P-151" value="" style="shape=image;html=1;verticalAlign=top;verticalLabelPosition=bottom;labelBackgroundColor=#ffffff;imageAspect=0;aspect=fixed;image=https://cdn0.iconfinder.com/data/icons/picons-social/57/66-wechat-128.png;rounded=1;shadow=0;glass=0;comic=1;fontSize=12;fontColor=#000000;opacity=50;align=center;" vertex="1" parent="1">
          <mxGeometry x="1720" y="1696" width="44" height="44" as="geometry"/>
        </mxCell>
      </root>
    </mxGraphModel>
  </diagram>
</mxfile>
